<?xml version="1.0" encoding="utf-8"?>
<!-- Generator: Adobe Illustrator 22.1.0, SVG Export Plug-In . SVG Version: 6.00 Build 0)  -->
<svg version="1.1" id="Capa_1" xmlns="http://www.w3.org/2000/svg" xmlns:xlink="http://www.w3.org/1999/xlink" x="0px" y="0px"
	 viewBox="0 0 175.5 163.4" style="enable-background:new 0 0 175.5 163.4;" xml:space="preserve">
<style type="text/css">
	.st0{fill:#59AABD;}
</style>
<g>
	<g>
		<path class="st0" d="M103.9,73.4c-3.1-20.9-26.7-24.1-44.1-21.5c-16.3,2.4-27.6,16.4-24,33.3c3.5,16.1,20.6,25.1,36.1,23.2
			c0.3,0.5,0.9,0.9,1.7,0.8C90.5,105.9,106.8,92.2,103.9,73.4z M73.2,106.1c-0.2-0.1-0.4-0.2-0.6-0.2c-13.8,0.8-28.9-5.6-33.2-19.7
			c-2-6.5-0.9-14.1,2.5-19.9C46.7,58,55,55.4,64,54.6c15.8-1.3,36.1,2.3,37,21.6C101.8,92.7,87.6,102.7,73.2,106.1z"/>
		<path class="st0" d="M70.4,99.6c-1.1,0.5-2.2,0.9-3.2,0c-0.9-0.8-1-2.1-0.6-3.2c0-0.1,0-0.1,0.1-0.2c2.2-0.4,3.5-2.6,4.3-4.6
			c0.4-1.1,0-2.4-1.4-2.4l-9.8,0c-1.1,0-2,1.3-1.3,2.3c1.5,2.2,3.3,4.2,5.5,5.7c-0.1,0.5-0.2,1-0.4,1.5c-0.5,0.9-1.6,1.4-2.6,1
			c-0.9-0.4-2,0.7-1.1,1.5c1.4,1.2,3.4,0.7,4.6-0.6c0.2-0.2,0.4-0.5,0.5-0.8c0.2,0.5,0.5,0.9,0.9,1.2c1.5,1.4,4.3,1.7,5.8,0.1
			C72.5,100.3,71.4,99.1,70.4,99.6z"/>
		<path class="st0" d="M49.4,86.2c-1-0.1-1.7-0.9-2.7-1c-1,0-2,0.5-2.2,1.5c-0.2,1,0.4,1.6,1.1,1.9c0.2,0.5,0.6,1,1.2,1.3
			c1.7,0.7,3.5-0.7,3.5-2.5C50.3,87,49.9,86.3,49.4,86.2z"/>
		<path class="st0" d="M81.9,87.2c-1.9-0.4-3.6,1.4-3.3,3.2c0.1,0.5,0.6,0.8,1,0.9c0.7,0.9,2.3,0.9,3.2,0
			C84.1,90,83.8,87.6,81.9,87.2z"/>
		<path class="st0" d="M166.1,88.4c-4.5,6.1-12.5-3.4-18.3-2.5c-2.8,0.5-4.9,2.3-5.8,4.8c-5.5-5.5-16.1-5.9-23.5-5.1
			c7-17,3.1-36.1-11.8-47.4c-31.6-24.1-92.8,0-87.3,43.3c2.6,20.4,19.8,36,39.6,38.4c-1.4,4-2.5,9.1-1.9,13.1c0.2,1.2,2.1,1.1,2.4,0
			c0.6-2.1,0.5-4.5,0.7-6.7c0.2-2.1,0.6-4.2,0.9-6.2c1.3,0.1,2.7,0.1,4,0.1c0.4,0.1,0.8,0.2,1.3,0.4c0.3,0.5,0.8,0.8,1.5,0.7
			c0.1,0,0.3-0.1,0.4-0.1c0.5,0.1,1,0.2,1.5,0.3c-1.3,4-1.2,8.8,0.7,12.6c0.6,1.3,2.8,0.4,2.3-1c-1.2-4-1.6-7.2-1-11.1
			c18,3.8,39.7,1.1,56.6-6.7c0.6,1,1.3,2,1.7,3.1c0.7,1.6,1,3.3,1.4,5c0.3,1.5,2.5,0.9,2.3-0.6c-0.4-2.8-1.7-6-3.6-8.3
			c2.2-1.1,4.3-2.2,6.3-3.5c6-3.8,11.6-11.4,7-18.3c3.4-8.9,11.9,0.3,17.8,0.8c3.2,0.3,6-1.1,7-4.1
			C168.9,87.9,166.9,87.3,166.1,88.4z M67.2,118.5C67.1,118.6,67.1,118.6,67.2,118.5c-0.3-0.1-0.5-0.3-0.8-0.3
			C42,116.1,20,98.5,22.4,72.2C24.8,46.5,53.2,32,76.7,31.8c24.4-0.2,46.7,18.9,41.4,44.7C113,101,89.7,113.5,67.2,118.5z
			 M139.6,104.4c-5.4,6.9-16.9,9.9-25,12.2c-13.3,3.7-26.1,3.9-39.4,3c17.4-4.8,33.8-14.5,41.9-31c0.1,0,0.1,0,0.2,0
			c5.4-0.3,10.9-0.4,16.2,1.3C140.1,91.9,144.6,98.1,139.6,104.4z"/>
	</g>
	<path class="st0" d="M122.7,123.6c0-1.3,0.3-2.9-0.7-3.9c-0.2-0.2-0.5-0.2-0.7,0c-1.1,0.9-0.9,2.5-1,3.8c-0.1,1.8-0.4,3.7-0.3,5.6
		c0.1,1.7,2.3,1.8,2.6,0.1C122.8,127.3,122.7,125.4,122.7,123.6z"/>
</g>
</svg>
