<?xml version="1.0" encoding="utf-8"?>
<!-- Generator: Adobe Illustrator 22.1.0, SVG Export Plug-In . SVG Version: 6.00 Build 0)  -->
<svg version="1.1" id="Capa_1" xmlns="http://www.w3.org/2000/svg" xmlns:xlink="http://www.w3.org/1999/xlink" x="0px" y="0px"
	 viewBox="0 0 175.5 163.4" style="enable-background:new 0 0 175.5 163.4;" xml:space="preserve">
<style type="text/css">
	.st0{fill:#59AABD;}
</style>
<g>
	<path class="st0" d="M140.8,101c-15.7,8.7-33.7,8.5-49.7,0.4c-1.1-0.5-2,1-0.9,1.6c16,9.6,35.8,9.3,52,0.3
		C143.7,102.5,142.3,100.1,140.8,101z"/>
	<path class="st0" d="M104.3,79.7c-0.5-1.3-1.8-2.2-3.2-2.1c-2,0.1-3,2.6-2,4.1c0.1,1.5,1.7,2.3,3,2.7c0.6,0.2,1.1-0.1,1.4-0.6
		C104.4,82.6,104.8,81.1,104.3,79.7z"/>
	<path class="st0" d="M135,77.4c-0.5,0-1.1,0.2-1.6,0.5c-0.1,0-0.2,0.1-0.3,0.1c-0.7,0.4-1.1,1.2-1.2,1.9c0,0,0,0.1,0,0.1
		c-0.1,1,0.2,2,0.9,2.7c0.7,0.7,1.7,1.1,2.7,0.7c0.9-0.3,1.6-1.1,1.9-2C138.2,79.7,137.2,77.3,135,77.4z"/>
	<path class="st0" d="M101.8,63.8c-0.6,0.1-1.1,0.4-1.4,0.8c-0.5-0.2-1.3,0.1-1.4,0.9c-0.2,1.5,1.1,3,2.6,3c1.5,0.1,3.1-1.3,3-2.9
		C104.7,64.2,103,63.5,101.8,63.8z"/>
	<path class="st0" d="M131.6,60.9c-1.4-0.5-2.8,0.5-3.2,1.7c-0.2,0.3-0.4,0.6-0.5,0.9c-0.5,2.2,2.4,3.3,4,2.4
		C133.7,64.7,133.7,61.6,131.6,60.9z"/>
	<path class="st0" d="M159.2,91.9c-0.3-9-5.6-14.3-12.6-17.4c0.6-0.1,1.1-0.5,1.2-1.3c0.4-4.3-0.2-8.3-1.7-11.9
		c3.3,0.3,6.9,0.1,9.4-2.3c2-1.8,3.2-4.9,2-7.4c-1.3-2.9-4.9-4-7.8-4.3c-2.8-0.3-5.5,0.1-8,1.1c3.2-6.7-1.9-15.6-4.5-21.8
		c-0.6-1.6-2.9-1-2.5,0.7c1.3,6.8-1.9,12.9-7.5,16.7c-0.3,0.2-0.4,0.4-0.4,0.7c-4.3-1.3-8.8-1.8-13.3-1.3c-2.1,0.2-4.2,0.7-6.2,1.4
		c-0.1-0.1-0.2-0.3-0.3-0.4c-5.8-4.5-9.4-10.3-10.6-17.6c-0.2-1-1.6-1.3-2.3-0.6c-6.9,7.1-7.6,18.6-1,26.1
		c-3.8-1.8-8.8-1.7-12.8-0.9c-3,0.6-9,2-10.3,5.3c-3.1,7.9,10.7,6.8,17.2,5.6c-2.1,4.5-3,9.4-2.5,14.6c0,0.1,0,0.2,0.1,0.3
		c-4.1,2.6-7.3,6.2-8.3,11.2c-13-1.5-29,0.1-39.7,8.2c-1.1,0.8-2.1,1.8-3,2.7c-6.5,1.4-15.5,4.7-19.2,10.8c-1.3,0.1-2.6,0.7-3.6,1.7
		c-0.8,0.7,0.4,1.8,1.2,1.2c0.5-0.4,0.9-0.6,1.4-0.8c-0.4,0.9-0.6,1.9-0.7,3c-0.1,1.2,1.7,1.6,2.2,0.6c0.6-1.2,1.2-2.2,1.8-3.3
		c1.2,0.7,2.1,2.1,2.3,3.8c0.1,1.3,1.9,1.3,2,0c0.2-2.3-1.2-4.5-3.1-5.6c1.3-1.8,2.7-3.3,4.8-4.7c2.8-1.8,5.8-2.9,8.9-4
		c-3.2,5.3-3.2,11.8,0.8,17.6c2.9,4.1,7,6.7,11.6,8.3c-0.9,3.7-1.7,7.2-2.8,10.9c-0.5,1.7,2,2.3,2.6,0.7c1.3-3.3,2.1-7.3,2.2-11
		c4,1.2,8.3,1.7,12.5,1.8c-0.2,2.8-0.5,5.9,0,8.5c0.2,1.2,2.2,1.2,2.4,0c0.5-2.6,0.2-5.7,0-8.5c1.7,0,3.3,0,4.9,0
		c3.6-0.1,7.1-0.4,10.7-0.9c0,3.3-0.1,6.8,0.4,10c0.2,1.4,2.4,1,2.5-0.3c0.1-3.2-0.5-6.7-0.9-9.9c3.8-0.6,7.5-1.3,11.2-2.2
		c-0.1,0.2-0.1,0.4-0.1,0.6c0.7,3.8,1.2,7.6,1.5,11.5c0.2,1.7,2.8,1.7,2.7,0c-0.4-4-1.2-8.1-2.4-12c-0.1-0.2-0.2-0.3-0.3-0.4
		c7.7-1.9,15.3-4.4,22.7-7.2c0.8-0.3,1.2-1.1,1.1-1.8c0.7,0,1.3-0.1,1.9-0.2c-4.8,3.7-7.9,8.8-9.8,14.5c-0.2,0.7,0.3,1.7,1,1.8
		c2.7,0.4,5.4,0.7,8.2,0.9c-0.9,2,0.3,5,2.5,5.7c3.2,1,6.3-2.7,5.3-5.6c2.9,0,7.5,0,9.2-2.1c3.6-4.5-2.7-12.6-6.5-16.1
		C141.5,115.1,159.8,110,159.2,91.9z M153.5,50.8c3.6,2.5,1.5,6.4-1.8,7.6c-2.2,0.8-4.7,0.6-7,0.3c-1.5-2.7-3.4-5-5.7-7.1
		c0.1,0,0.1-0.1,0.2-0.1c0.1-0.1,0.2-0.2,0.3-0.3C143.6,49.2,149.6,48.1,153.5,50.8z M137.1,33c2.5,5.7,4.8,12.4,0.3,16.6
		c-0.1,0.1-0.2,0.3-0.3,0.4c-2.6-2-5.5-3.6-8.5-4.7C133.3,42.6,136.2,38.1,137.1,33z M94.2,30c1.6,6.2,5.2,11.6,10.3,15.6
		c-3.4,1.4-6.6,3.5-9.4,5.9c0-0.1-0.1-0.1-0.1-0.2C90,45,89.6,36.4,94.2,30z M79.8,60.6c-2.6,0-3,0.3-4.6-2.3
		c-1.8-1.3-2-2.1-0.7-2.5c1.1-0.6,2.2-1,3.3-1.4c5.3-1.8,9.8-0.8,14.9-0.5c-1.6,1.7-3,3.6-4.2,5.6C85.6,60,82.7,60.5,79.8,60.6z
		 M112.3,46.4c3.4-0.5,6.7-0.5,9.8,0c1.6,5.3-4.6,6.1-8.8,6c0,0,0,0-0.1-0.1c-1.8-1-3.6-0.6-5.2,0.6c-1.2,0.9-2.1,2.1-3.2,3.1
		c-2.8,2.6-5.6,1.1-7.9-1.2c-0.7-0.7-1.7,0.3-1.1,1.1c1.7,1.9,3.8,4,6.6,3.5c3.5-0.6,5.2-5.3,8.5-5.9c0.1,0.1,0.1,0.1,0.3,0.1
		c3.3,0.6,7.2,1.2,10.1-0.9c1.9-1.3,3.1-3.5,2.8-5.7c11.8,2.9,20,13.1,20.9,26.4c0,0.3,0.1,0.5,0.3,0.7c-9.8-3.8-22.6-3.8-31.2-3.6
		c-8,0.2-19.4,1.2-27.7,5.6C87.3,61.4,97.5,48.7,112.3,46.4z M69.4,90.3c2.2-0.1,4.4,0,6.5,0c-0.1,1.1-0.1,2.2,0,3.4
		c0.3,5,2.6,9.2,5.9,12.7c-2.1,3.2-5.9,0.8-8.3-1.2c0-0.1,0-0.1,0-0.2c0-2.6-2.7-3.3-4.9-3.4c-0.7,0-1.4,0.1-2,0
		c-2.9-0.5-2.3-3-1.5-5c1-2.3,2.5-4.2,4.1-6.1C69.3,90.4,69.4,90.3,69.4,90.3z M39.2,121.8C39.2,121.8,39.2,121.8,39.2,121.8
		c-3.1-2.2-5.4-5.1-6.3-9.1c-1.7-7.4,2.6-12.5,8.8-16c0.5-0.3,1-0.5,1.4-0.8c4.8,0.8,12.4,5.1,5.2,9.9c-1.9,1.3-4.3,1.5-6.1,2.8
		c-2.3,1.7-3.4,4.5-1.8,7c0,0.5,0.1,0.9,0.2,1.4C40.9,118.8,41.4,121.3,39.2,121.8z M67.6,127.4c-0.2-2.8-0.7-6.1,1.6-8.2
		c2.2-1.9,4.6-0.9,7-0.1c2.5,0.8,5.1,1.7,7.4-0.2c0.1,0,0.1-0.1,0.1-0.2c4.2-2.3,9-0.9,11.1,3.5C86,125,76.7,127,67.6,127.4z
		 M96.6,121.8c-2.2-5.5-8.8-7.4-13.6-4.2c-0.2,0-0.3,0-0.5,0.1c-4.3,1.9-8.4-2.8-12.8-1.1c-4.4,1.7-4.4,7-3.6,10.9
		c-6.5,0.2-12.9-0.3-19-2c-2-0.6-4-1.3-5.8-2.3c0.7-0.6,1.2-1.4,1.5-2.3c0.7-2.8-1.3-5.3-0.7-8c0-0.1,0-0.1,0-0.2
		c1.7-3.8,11.2-4.8,11-10.6c-0.2-4.3-3.8-6.3-7.6-7.1c6.8-2.9,14.3-4.2,21.7-4.5c-2.7,2.6-6.4,7.7-5,11c1.6,3.8,6.9,1,9.2,3.3
		c0,0.2,0,0.3,0.1,0.5c1.7,2.1,3.8,4.4,6.6,4.7c1.9,0.2,4-0.4,5.2-2c6.7,5.8,16.7,9.1,25.8,9.7C105.1,119,100.9,120.5,96.6,121.8z
		 M118.8,138.2c-1.2-0.6-1.4-2.2-1-3.4c1.2,0,2.4,0,3.6,0c0,0.1,0,0.2,0.1,0.3C122.1,136.6,120.6,139.1,118.8,138.2z M128.3,122.9
		c0.7,1.2,1.6,2.7,1.8,4.1c0.3,2.4,0.1,3.5-2.3,4.2c-5.1,1.6-12.1,0.7-17.5-0.1c1.8-4.7,4.6-8.5,7.9-12.3c0.4-0.5,0.3-1.2-0.1-1.5
		c0.5-0.1,0.9-0.2,1.4-0.2c0.1,0,0.1,0,0.1-0.1c1.1,0,2.3-0.1,3.5-0.2c0,0.3,0.1,0.5,0.4,0.8C125.4,119.1,127,120.8,128.3,122.9z
		 M118.4,114.4c-0.3,0-0.5,0.1-0.7,0.3c-13.4,0-35.2-3.8-38.3-19.4c-3.9-19.6,23.3-21.5,36-21.7c13.4-0.3,39.6-0.6,40.5,18.3
		C156.7,110.8,132,113.9,118.4,114.4z"/>
</g>
</svg>
