<?xml version="1.0" encoding="utf-8"?>
<!-- Generator: Adobe Illustrator 22.1.0, SVG Export Plug-In . SVG Version: 6.00 Build 0)  -->
<svg version="1.1" id="Capa_1" xmlns="http://www.w3.org/2000/svg" xmlns:xlink="http://www.w3.org/1999/xlink" x="0px" y="0px"
	 viewBox="0 0 175.5 163.4" style="enable-background:new 0 0 175.5 163.4;" xml:space="preserve">
<style type="text/css">
	.st0{fill:#59AABD;}
</style>
<g>
	<path class="st0" d="M155.7,70.6c0.1-1.2-1.8-1.4-2.1-0.3c-0.6,2.1-2.3,4.6-4.4,5.9c0-0.5-0.1-1.1-0.2-1.7c-1.1-4.1-7-6-9.1-1.6
		c-2,4.2,2.6,6.4,6.1,6.4c-1.2,2-3.3,3.1-5.4,4.1c-0.8-1-1.7-2-2.6-3c-8.6-8.1-20.7-8.4-31.8-6.3c2.5-6.3,2.8-13.2-1-20.4
		c-0.1-0.1-0.1-0.2-0.2-0.3c0.5,0.6,1.5,0.7,2.1-0.1c3-4.6,4.4-9.9,4.3-15.4c0-0.6-0.5-1.1-1.1-1.1c-5.7-0.1-11,1.9-15.1,6
		c-8.3-5.6-19.2-7.5-29.2-7.4c-6.5,0-12.9,1-18.4,3.2c0-0.3-0.1-0.7-0.5-1c-2.8-1.9-5.9-3.5-8.9-5.2c-1.3-0.7-2.8-1.6-4-0.3
		c-1.3,1.5-0.6,4.6-0.5,6.4c0.3,3.1,1,6.1,2,9c-1.7,2.4-3.2,5.1-4.2,8.4c-4.3,13.5,0.1,29.3,11,38.3c0.1,0.1,0.2,0.1,0.3,0.2
		c1,6.4,7.9,12.6,13.5,15.1c5.6,2.5,12.1,3,18.2,1.5c0,0,0,0,0,0c3.4,2,7.5,3.9,11.9,5.4c-3.3,2.4-4.6,8.3-4.3,12.1
		c0.1,1.5,2.4,1.6,2.4,0c0-2.2,0.2-4.2,0.8-6.3c0.6-1.9,1.8-3.5,2.3-5.3c0,0,0,0,0,0c2.9,1,5.9,1.8,9,2.4c-1.3,3.6-1.5,8.1-0.3,11.7
		c0.5,1.5,2.6,0.9,2.3-0.6c-0.7-3.8-0.9-7-0.3-10.8c4.9,0.9,9.9,1.3,14.7,1.1c0,0,0,0,0,0c-0.1,1.4-0.1,2.8-0.2,4.2
		c-0.1,1.3-0.3,2.6,0,3.9c0.2,1,1.9,1,2.1,0c0.3-1.3,0.1-2.6,0-3.9c-0.1-1.4-0.1-2.8-0.2-4.2c0-0.1,0-0.1,0-0.1
		c3.8-0.3,7.4-1,10.8-2.1c0.7,1.6,1.3,3.1,1.4,4.9c0,0.6,0,1.3,0,1.9c0,0.3-0.4,1.7-0.3,2.1c0,0-0.1,0-0.1,0.1c0,0-0.1,0.1-0.1,0.1
		c-0.4,0.4-0.4,1-0.2,1.4c0,0.1,0.1,0.1,0.1,0.2c0.3,0.5,0.8,0.7,1.4,0.5c1.8-0.4,1.6-4.3,1.5-5.6c-0.2-2.2-1-4.3-2.4-6
		c6-2.3,11.1-6.1,14.7-11.9c4.2-6.9,4.1-14.8,0.1-21.3c2.9-1.3,5.9-3.3,7.1-6.1C152.3,77.7,155.4,74.5,155.7,70.6z M108.9,39.1
		c-0.2,4.7-1.6,8.9-4.1,13c-0.2,0.4-0.2,0.7-0.1,1c-2.1-3.8-4.9-6.8-8.1-9.2C100,40.9,104.3,39.2,108.9,39.1z M35.5,35.1
		c-0.2-0.6,0-0.8,0.7-0.6c0.6-0.2,1.2,0,1.7,0.5c0.9,0.4,1.7,1,2.5,1.4c1.8,1,3.5,2.1,5.4,3c-3.4,1.6-6.5,3.8-9,6.8
		c-0.3-1.2-0.6-2.5-0.8-3.7C35.8,40.8,34.8,36.6,35.5,35.1z M42.6,91.3c-7.9-8.9-11.9-20.9-8.9-32.7c4-15.6,17.4-20.3,32.1-20.4
		c13.4-0.1,28.3,3.2,35.8,15.3c8.6,13.8-0.4,25-9.6,35.2c-0.1,0.1-0.1,0.1-0.1,0.2c-2-6.5-9.1-11.3-16.4-13.5
		c-12-3.6-26.1,0.4-32.3,11.8c-0.3,0.5-0.2,1,0,1.3C42.9,89.5,42.7,90.4,42.6,91.3z M65.4,109.1c-8.4-0.7-27.8-11.7-17.8-22.3
		c0.3-0.3,0.3-0.7,0.2-1c4.9-5.7,11.6-8.9,19.5-8.8c9.5,0.2,24.8,6.4,21.6,18.1C86.2,104.8,74.9,109.9,65.4,109.1z M133.3,110.8
		c-15.4,11.8-39.8,7.7-56.2-0.4c5.3-1.8,10-5.2,12.9-10.1c2-3.4,2.7-6.6,2.3-9.4c0.5,0.3,1.1,0.3,1.6-0.2c4.2-3.9,8.1-8.4,10.7-13.2
		c10.9-2.3,23.5-2.9,31.9,5.7C144.9,91.7,142.3,103.9,133.3,110.8z M142.8,76.4c-2.5-1.7,0.1-5.2,2.9-2.8c1.1,1,1.3,2.3,1,3.7
		C145.5,77.5,144.2,77.3,142.8,76.4z"/>
	<path class="st0" d="M55.5,89.2c-0.8,0-1.5,0.3-2,0.9c-0.6,0.2-1.1,0.6-1.4,1.3c-0.3,0.9,0,2,0.7,2.7c1.4,1.4,3.9,1.2,5-0.6
		C58.7,91.8,57.5,89.3,55.5,89.2z"/>
	<path class="st0" d="M74.9,91.4c-1.4,0.7-1.8,2.6-1.1,3.8c0.2,0.3,0.4,0.6,0.7,0.9c1.7,1.4,4.3,0.1,4.5-2
		C79.1,92,76.8,90.4,74.9,91.4z"/>
	<path class="st0" d="M51.9,68.3c-1.2-1.4-3.6-1.1-4.2,0.8c-0.1,0.2-0.1,0.5-0.1,0.7c0,0.1-0.1,0.1-0.1,0.2c0,0.7,0.3,1.3,0.7,1.7
		c0.3,0.4,0.7,0.6,1.2,0.7c0.4,0.1,0.9,0.1,1.3,0C52.8,72,53.1,69.6,51.9,68.3z"/>
	<path class="st0" d="M85.5,67.4c-0.1,0-0.2,0.1-0.3,0.1c-0.1,0-0.3,0-0.4,0.1c-1.5,0.8-1.6,3.2,0,4c1.4,0.7,3.2-0.3,3.6-1.7
		C88.7,68.2,87.1,66.9,85.5,67.4z"/>
</g>
</svg>
