<?xml version="1.0" encoding="utf-8"?>
<!-- Generator: Adobe Illustrator 22.1.0, SVG Export Plug-In . SVG Version: 6.00 Build 0)  -->
<svg version="1.1" id="Capa_1" xmlns="http://www.w3.org/2000/svg" xmlns:xlink="http://www.w3.org/1999/xlink" x="0px" y="0px"
	 viewBox="0 0 175.5 163.4" style="enable-background:new 0 0 175.5 163.4;" xml:space="preserve">
<style type="text/css">
	.st0{fill:#59AABD;}
</style>
<g>
	<path class="st0" d="M152.3,92c-1.2-0.5-2.4-1-3.6-1.4c2.3-4.2,3.8-9.1,4-14.5c0.4-8.6-2.2-15.9-6.7-21.7c0.3-0.2,0.5-0.6,0.5-1
		c0.5-5.6,0.1-11.2-0.3-16.8c-0.1-1.3-1.5-1.9-2.5-1c-3.3,2.8-6.4,5.9-9.2,9.3c-6.2-3.4-13.6-5.3-21-5.3c-7.7-0.1-15.8,1.8-22.8,5.5
		c-3.5-2.8-7.5-5.2-11.4-7.4c-0.8-0.4-1.9-0.1-2.1,0.9c-1.3,5.6-1,11.4,1.2,16.7c-3.3,4.4-5.4,9.6-5.7,15.6
		c-11.9-4.1-26.2-4.8-36.4,3.7c-2.2,1.8-4,3.9-5.5,6.2c-6.1-3.5-11-9.4-8.6-17c1.2-4,3.9-7.3,7.8-8.9c5.5-2.2,15.4,2.3,9.6,9.3
		c-1,1.2,0.6,2.9,1.8,1.8c3.7-3.4,3.2-9.5-0.7-12.6c-4.4-3.6-10.8-2.5-15.1,0.6c-10.1,7.3-8.5,25.1,4.2,28.4
		c-3.2,6-3.8,13.1-0.4,19.5c2.4,4.6,6.1,8,10.4,10.4c-0.5,4.9-0.4,10.3,0.6,14.9c0.4,1.7,3.1,1.3,3-0.4c-0.2-4.4-0.5-8.8-0.9-13.2
		c5.1,2.2,10.8,3.3,16.3,3.5c0.3,0,0.7,0,1,0c0.1,1.4,0.3,2.8,0.4,4.2c0.1,1.8-0.2,3.7,0.1,5.5c0.2,1.4,2.3,2,2.6,0.4
		c0.6-2.9,0.2-6.8-0.5-10c4.7,0,9.5-0.2,14.3-0.9c-0.2,3.6-0.2,7.1-0.4,10.7c0,0.8,0.8,1.7,1.6,1.6c1.6-0.2,2.4-1.1,2.1-2.8
		c-0.1-0.4-0.3-0.7-0.6-0.9c-0.1-3-0.1-5.9-0.3-8.9c0,0,0,0,0-0.1c3.5-0.6,7-1.5,10.4-2.6c0.5,4.2,1.3,8.6,2.3,12.7
		c0.5,2,3.5,1.2,3.1-0.9c-0.8-4.2-1.7-8.6-3-12.7c3-1.2,5.9-2.7,8.5-4.5c3.8,1,7.8,1.4,11.9,0.8c11.6,1.3,23-2.7,30.7-10.3
		c1.5,0.6,3.1,1.2,4.6,1.8c1.5,0.6,2.3-2,0.7-2.5c-1.2-0.3-2.4-0.7-3.5-1.1c1.1-1.2,2-2.5,2.9-3.9c1.4,0.5,2.8,1.1,4.2,1.6
		C153,94.6,153.5,92.5,152.3,92z M143.4,39.5c0.2,4,0.1,8.1,0.1,12.1c-2.1-2.2-4.5-4.1-7.2-5.7C138.6,43.6,141,41.5,143.4,39.5z
		 M79.5,41c2.8,1.8,5.6,3.6,8.4,5.4c-2.9,1.8-5.6,4-7.9,6.5C79.1,49,78.8,45.1,79.5,41z M71.7,113c-9.9,0.9-20.7,1.4-29.5-3.4
		c-0.1-0.7-0.9-1.1-1.5-0.9c-0.6-0.4-1.3-0.8-1.9-1.3c-10.6-8-10.5-21.9-0.4-30.3c9.8-8.3,22.9-6.5,34.3-3c0,0.1,0,0.1,0,0.2
		c0.5,5.9,2.5,11.6,5.6,16.6c-2.2,0.5-4.5,1-6.7,1.6c-0.8,0.2-0.4,1.3,0.3,1.2c2.4-0.4,4.9-0.7,7.3-1.2c1.1,1.6,2.4,3.2,3.7,4.6
		c-1.3,0.5-2.6,0.9-3.9,1.4c-1,0.3-0.6,1.8,0.4,1.5c1.6-0.5,3.3-1,4.9-1.5c3.9,3.8,8.4,6.7,13.4,8.5C89.5,110.7,80.8,112.2,71.7,113
		z M145.4,89.3c-2.7-1-5.5-2-8.2-3c-1-0.3-1.6,1.2-0.7,1.7c2.5,1.1,5.1,2.2,7.7,3.3c-0.9,1.4-2,2.6-3.1,3.8
		c-3.1-1.2-6.1-2.5-9.1-3.9c-1-0.5-1.9,1-0.9,1.6c2.7,1.5,5.4,2.9,8.3,4.1c-7.1,6.5-17.3,10-27.8,8.6c-0.7-0.1-1.2,0.2-1.6,0.7
		c-8.1-0.5-15.8-3.6-21.8-8.8c2.5-0.8,5-1.6,7.5-2.4c1.2-0.4,0.7-2.3-0.5-1.9c-2.9,0.8-5.8,1.8-8.7,2.8c-1.3-1.2-2.5-2.6-3.6-4
		c2.7-0.5,5.4-1,8-1.6c1.1-0.3,0.6-1.9-0.5-1.7c-2.9,0.5-5.9,1-8.8,1.7c-2.8-4.2-4.8-9.2-5.4-14.6c-2.6-20.6,17.8-32.3,35.9-32.7
		c16.5-0.3,33.6,8.6,36.7,26C150.2,76.4,148.8,83.4,145.4,89.3z"/>
	<path class="st0" d="M120,95.2c-1.6,1-3.3,1.8-5.1,0.9c-1.5-0.7-2.3-2.2-2.4-3.8c0.3,0,0.7,0,0.9-0.2c3.2-2.2,5.8-4.9,7.9-8.2
		c0.6-1-0.2-2.4-1.3-2.3c-4.5,0.3-9,0.6-13.6,1c-1,0.1-2,1.3-1.3,2.3c1.7,2.4,3.4,4.8,5.1,7.1c-0.1,1-0.3,2.1-0.8,2.9
		c-1,1.8-3.4,2.6-5,1.2c-1.2-1-2.6,0.5-1.6,1.6c1.8,2.3,5.5,1.6,7.5-0.1c0.6-0.6,1-1.2,1.4-1.9c0.5,1,1.3,1.8,2.3,2.4
		c2.3,1.3,5.8,1,7.5-1.1C122.1,96,121.1,94.4,120,95.2z"/>
	<path class="st0" d="M90.8,75.3c-0.5,0-0.9,0.2-1.1,0.6c0,0,0,0,0,0c-0.1,0-0.3,0.1-0.4,0.1c-0.1,0-0.2,0-0.2,0
		c-0.3,0.1-0.5,0.4-0.7,0.7c-0.3,0.5-0.4,1.1-0.3,1.7c0.1,1.4,1.3,2.6,2.8,2.5C94,80.6,93.9,75.5,90.8,75.3z"/>
	<path class="st0" d="M135.7,74.1c-0.1-0.3-0.3-0.5-0.6-0.6c-1.9-0.5-3.9,1.3-3.6,3.3c0.4,2.3,3.1,2.6,4.5,1
		C137.1,76.7,136.9,74.9,135.7,74.1z"/>
</g>
</svg>
