<?xml version="1.0" encoding="utf-8"?>
<!-- Generator: Adobe Illustrator 22.1.0, SVG Export Plug-In . SVG Version: 6.00 Build 0)  -->
<svg version="1.1" id="Capa_1" xmlns="http://www.w3.org/2000/svg" xmlns:xlink="http://www.w3.org/1999/xlink" x="0px" y="0px"
	 viewBox="0 0 175.5 163.4" style="enable-background:new 0 0 175.5 163.4;" xml:space="preserve">
<style type="text/css">
	.st0{fill:#59AABD;}
</style>
<g>
	<path class="st0" d="M157.4,62.5c-4.8-12.1-20.2-16.1-31.3-11c-8.2-7.3-19.5-11.3-30.9-9.9c-8.5,1-16.3,5-22.2,11
		C62.1,47.5,44.6,52.5,41.1,65c-0.8,2.8-0.3,5.6,1,8c-4.6,0.8-8.6,3-11.5,5.9c-1.8-2.2-1.9-4.7-1.3-7.7c0.3-1.5-1.7-2.4-2.5-1
		c-2,3.4-0.6,8,2.2,10.6c-3.9,5.3-4.2,12.4,1.5,19.2c1.9,2.3,4.1,4.1,6.5,5.7c-1.6,4.3-2.8,9.3-2.6,13.8c0.1,1.6,2.6,2.1,2.9,0.4
		c0.6-4.3,1.2-8.5,2-12.8c3,1.6,6.3,2.8,9.7,3.5c-0.3,3.4-0.4,6.8-0.3,10.2c0,1.9,2.9,1.9,2.9,0c0.1-3.2,0-6.6-0.3-9.8
		c4.5,0.7,9.3,0.7,13.9,0.1c0.1,3.2,0.2,6.4,0.2,9.7c0,1.9,2.7,1.8,2.9,0c0.4-3.2,0.2-6.8-0.5-10c4.4-0.7,8.7-2,12.6-3.6
		c0.2-0.1,0.3-0.2,0.4-0.3c0.3,1.7,0.8,3.3,1,5c0.2,1.7,0.1,3.5,0.2,5.2c0.2,1.6,2.7,2.2,3,0.4c0.5-2.9,0-6.6-1.1-9.6
		c5.1,2.2,10.7,3.6,16.5,4.4c0.2,0.1,0.4,0.1,0.6,0.1c0.4,0,0.7,0.1,1.1,0.1c0.4,0.1,0.7-0.2,0.9-0.4c17-3.2,33.9-12.7,35.6-30.2
		C150.1,85,162.3,75,157.4,62.5z M50.1,58.4c6.3-4.9,13.8-5.5,21.2-3.8c-4,4.7-6.9,10.4-8,16.6c0,0-0.1,0-0.1,0.1
		c-4.5,4-11.7,7.4-16.8,2.1C41.4,68.1,45.5,61.9,50.1,58.4z M45,105.8c-5.3-2-11.4-5.8-14-11.1C25.6,83.9,34.8,77.6,43.6,75
		c1.3,1.5,3,2.7,5,3.4c5,1.8,10.3,0.1,14.2-3.1c-0.1,1.3-0.1,2.6,0,4c0.8,12.1,6.7,20.2,15.1,25.5C66.9,107.3,56,109.9,45,105.8z
		 M100.4,109.3c-0.3,0.1-0.5,0.2-0.7,0.4c-15.5-3.5-30.1-9.8-33.1-27.4c-3.2-18.5,11.8-35.6,30-37.3c17-1.5,33.8,9.7,37.8,26.5
		C139.8,94.7,119.6,105.3,100.4,109.3z M138.7,78.6c0-1.5-0.1-3-0.4-4.6c-1.2-8.1-5-15.2-10.4-20.7c7.6-2.6,16.5-1.2,22.5,4.6
		C160.6,67.9,151.9,82.7,138.7,78.6z"/>
	<path class="st0" d="M112,95.3c-0.9,1.7-2.4,2.8-4.5,2.2c-2.2-0.6-3.3-2.7-3.8-4.8c0,0,0.1,0,0.1-0.1c2.5-2.6,4.9-5.4,7.1-8.3
		c0.9-1.1,0.4-2.7-1.2-2.8c-5.4-0.3-10.9-0.6-16.3-0.8c-1.3-0.1-1.8,1.4-1.4,2.4c1.7,4,4.3,7.3,7.8,9.9c0.2,0.1,0.4,0.2,0.5,0.2
		c0.1,1.5-0.4,3-1.8,4c-2.2,1.4-4.2,0.1-5.9-1.3c-0.8-0.6-2.3-0.1-1.9,1.1c1.2,3.6,6.5,4.3,9.3,2.3c1.3-0.9,2.1-2.3,2.4-3.8
		c0.8,2.2,2.5,4,4.8,4.5c2.7,0.6,6.4-0.8,6.9-3.8C114.5,95,112.8,94,112,95.3z"/>
	<path class="st0" d="M82,78.4c-1.6-2-5.3-0.9-5.7,1.6c-0.1,0.6,0.1,1.2,0.6,1.5c0.7,0.4,1.5,0.5,2.2,0.3c1.3,0.1,2.7-0.8,3.2-2.1
		C82.5,79.3,82.3,78.8,82,78.4z"/>
	<path class="st0" d="M124.8,77.4c-0.6-0.9-1.6-1.3-2.6-1.4c-0.4-0.2-1-0.2-1.3,0.2c-1.1,0.4-2.1,1.4-2,2.6c0.1,1.2,1.5,1.7,2.3,0.9
		c0.1,0.1,0.2,0.1,0.3,0.2c1.1,0.4,2.3,0,3.1-0.8C125,78.6,125.2,77.9,124.8,77.4z"/>
</g>
</svg>
