<?xml version="1.0" encoding="utf-8"?>
<!-- Generator: Adobe Illustrator 22.1.0, SVG Export Plug-In . SVG Version: 6.00 Build 0)  -->
<svg version="1.1" id="el_J9tJUnrLS" xmlns="http://www.w3.org/2000/svg" xmlns:xlink="http://www.w3.org/1999/xlink" x="0px"
	 y="0px" viewBox="0 0 366 670" style="enable-background:new 0 0 366 670;" xml:space="preserve">
<style type="text/css">
	.st0{fill:#31C700;}
	.st1{fill:#211915;}
</style>
<rect id="el_wZnbaiF01D" x="-6.8" y="-9" class="st0" width="381" height="691.5"/>
<g id="el_hV6CBwNbvK_an_rIuBQg2Bh">
	<ellipse id="el_hV6CBwNbvK" cx="505.6" cy="669.4" rx="163.9" ry="64.4"/>
</g>
<path id="el_JsaIQMz36S" class="st1" d="M270.7,270.2c-0.1-0.5-0.4-1-0.9-1.4c-0.4-0.3-0.8-0.2-1.2,0.2c-1.5,2.4-3,4.2-4.4,5.5
	c-1.3,1.2-2.7,2.2-4.2,3c0.7-1.9,1.2-3.9,1.5-5.9c0.3-2.1,0.3-4.3-0.1-6.5c-0.3-2-0.9-3.9-1.8-5.6c-0.8-1.6-2.2-2.9-3.9-3.6
	c-1.3-0.6-2.8-0.7-4.2-0.4s-2.7,0.9-3.9,1.8c-1.2,0.8-2.3,1.9-3.2,3c-0.8,1-1.5,2.2-1.9,3.5l0.5-6.3c0.1-0.6-0.2-1.3-0.8-1.6
	c-0.6-0.4-1.2-0.7-1.9-0.8s-1.4,0-2.1,0.3c-0.7,0.3-1.1,0.9-1.2,1.7c0,0.1-0.1,0.8-0.2,2c-0.1,1.2-0.2,2.8-0.3,4.7
	c-0.1,1.9-0.3,4.1-0.5,6.6c0,0.4-0.1,0.8-0.1,1.3c-0.3,0.2-0.6,0.3-0.9,0.5c-0.6,0.3-1.2,0.5-1.8,0.7c-0.7,0.2-1.4,0.3-2.2,0.3
	c0.1-0.7,0.3-1.3,0.3-2c0.1-0.7,0.2-1.5,0.2-2.3s0.1-1.6,0.1-2.4s-0.1-1.5-0.1-2.2c-0.2-1.4-0.5-2.8-0.9-4.1c-0.4-1.2-1-2.3-1.8-3.3
	c-0.8-0.9-1.8-1.5-2.9-1.8c-1.2-0.3-2.5-0.2-4.1,0.3c-2.1-0.3-4.2-0.1-6.2,0.6c-1.8,0.7-3.4,1.8-4.8,3.2c-1.4,1.4-2.5,3.1-3.3,4.9
	c-1.2,2.5-1.8,5.3-1.9,8c-0.1,0-0.2,0.1-0.2,0.1c-0.6,0.3-1.2,0.5-1.8,0.7c-0.7,0.2-1.4,0.3-2.2,0.3c0.1-0.7,0.3-1.3,0.3-2
	c0.1-0.7,0.1-1.5,0.2-2.3c0-0.8,0.1-1.6,0-2.4c0-0.8-0.1-1.5-0.1-2.2c-0.2-1.4-0.5-2.8-0.9-4.1c-0.4-1.2-1-2.3-1.8-3.3
	c-0.8-0.9-1.8-1.5-2.9-1.8c-1.2-0.3-2.5-0.2-4.1,0.3c-2.1-0.3-4.2-0.1-6.2,0.6c-1.8,0.7-3.4,1.8-4.8,3.2c-1.4,1.4-2.5,3.1-3.3,4.9
	s-1.4,3.8-1.7,5.7c-0.1,0.8-0.2,1.7-0.2,2.6c-0.5,1-1.1,1.9-1.8,2.7c-0.9,1.1-1.9,2.1-3,3c-0.8,0.6-1.6,1.2-2.5,1.6
	c-0.8,0.4-1.6,0.5-2.4,0.5c-0.8,0-1.5-0.4-2-0.9c-0.6-0.6-1-1.5-1.3-2.7c1.7-2.1,3.2-4.3,4.5-6.5c1.4-2.3,2.7-4.7,3.9-7.2
	c1.1-2.3,2-4.7,2.7-7.1c0.7-2.1,1.1-4.2,1.3-6.3c0.1-1.9-0.1-3.5-0.6-4.8c-0.4-1.2-1.5-2.2-2.8-2.4c-1.5-0.4-3.1-0.5-4.7-0.1
	c-1.4,0.4-2.7,1.1-3.7,2.1c-1.2,1.1-2.1,2.4-2.9,3.8c-0.8,1.6-1.5,3.3-2.1,5c-0.5,1.5-0.9,3-1.2,4.5s-0.6,3.1-0.8,4.7
	s-0.3,3.1-0.4,4.6c-0.1,1.5-0.1,3-0.1,4.4c0,1,0.1,2,0.2,3c-0.5,1.3-1.1,2.5-1.8,3.6c-0.9,1.3-1.8,1.8-2.9,1.7
	c-0.5-0.2-0.8-0.7-0.9-1.4c-0.2-0.9-0.2-1.8-0.2-2.7c0.1-1.1,0.2-2.3,0.4-3.7c0.2-1.4,0.5-2.8,0.8-4.2c0.3-1.5,0.6-2.9,1-4.4
	c0.3-1.5,0.6-2.9,0.9-4.2c0-1.2-0.4-2.1-1-2.7c-0.6-0.6-1.6-0.9-2.7-0.7c-0.7,0.3-1.3,0.7-1.8,1.3c-0.4,0.6-0.7,1.3-0.9,2.1
	c-0.1,0.4-0.3,1.3-0.6,2.6c-0.3,1.3-0.6,2.8-1,4.5s-0.9,3.5-1.5,5.3c-0.5,1.7-1.2,3.4-1.9,5c-0.6,1.3-1.4,2.5-2.3,3.6
	c-0.8,0.9-1.7,1.3-2.7,1.1c-0.5-0.1-0.9-0.7-1-1.7c-0.2-1.2-0.2-2.5-0.1-3.7c0.1-1.6,0.3-3.3,0.6-4.9c0.3-1.8,0.6-3.4,0.9-5
	c0.3-1.6,0.6-3,0.9-4.2c0.3-1.2,0.5-2,0.6-2.4c0-0.8-0.2-1.7-0.7-2.3c-0.8-1.1-2.3-1.5-3.5-0.9c-0.7,0.4-1.3,1-1.7,1.7
	c-0.2,0.9-0.4,2-0.7,3.2s-0.5,2.4-0.8,3.7c-0.3,1.3-0.5,2.5-0.7,3.7s-0.4,2.3-0.5,3.2c-0.1,0.6-0.1,1.3-0.2,2
	c-0.2,0.5-0.3,1.1-0.6,1.6c-0.5,1.2-1.1,2.3-1.8,3.3s-1.6,1.8-2.6,2.4s-2.2,1-3.4,0.9c-1,0-1.9-0.6-2.4-1.4c-0.7-1-1.4-2-1.9-3.1
	c-0.6-1.2-1.3-2.5-2.1-3.7c-0.8-1.3-1.8-2.4-3.1-3.2c0.2-0.7,0.5-1.5,0.7-2.4c0.3-0.9,0.5-1.8,0.8-2.7c0.3-0.9,0.5-1.8,0.8-2.7
	c0.3-0.9,0.5-1.7,0.8-2.3c1.2,0,2.3-0.2,3.4-0.8c1.3-0.6,2.5-1.4,3.5-2.4c1.1-1.1,2.1-2.3,2.8-3.7c0.8-1.3,1.2-2.8,1.3-4.4
	c0.1-0.8,0-1.7-0.3-2.5c-0.4-1.4-1.3-2.6-2.5-3.4c-0.5-0.4-1.2-0.6-1.8-0.8c-1.6-0.5-3-0.4-4.2,0.3s-2.2,1.6-3,2.7
	c-0.8,1.2-1.5,2.5-2,3.9s-1,2.6-1.3,3.6c-0.9-0.6-1.7-1.3-2.4-2.1c-0.6-0.7-1.1-1.4-1.4-2.2c-0.4-0.8-0.6-1.6-0.8-2.4
	c-0.2-0.9-0.4-1.8-0.5-2.8c-0.3-0.8-0.7-1.4-1.4-1.6c-0.7-0.2-1.4-0.2-2,0.1c-0.7,0.3-1.3,0.8-1.7,1.5c-0.5,0.7-0.6,1.6-0.4,2.4
	c0.2,1.1,0.4,2.2,0.8,3.3c0.4,1.2,0.9,2.4,1.6,3.5c0.7,1.2,1.5,2.3,2.5,3.4c1.1,1.1,2.4,2.1,3.8,2.9c-0.4,1.7-0.9,3.4-1.4,5.2
	c-0.6,1.8-1,3.3-1.4,4.7c-1.9,0-3.8,0.4-5.5,1.3c-1.8,0.9-3.3,2.2-4.5,3.8c-1.1,1.3-1.8,2.8-2.2,4.5c-0.3,1.4-0.3,2.9,0,4.4
	c0.3,1.3,1,2.5,1.9,3.4c1,0.9,2.3,1.5,3.6,1.7c1.4,0.2,2.9,0,4.2-0.6c1.2-0.6,2.2-1.4,3-2.5c0.9-1.1,1.6-2.3,2.1-3.6
	c0.5-1.3,1-2.6,1.4-3.9c0.8,1.2,1.4,2.4,2,3.7c0.5,1.1,1.1,2.2,1.8,3.3c0.7,1,1.5,1.8,2.5,2.4c1,0.7,2.3,1.1,4,1.2
	c1.9,0.2,3.9-0.1,5.6-1c1.6-0.9,3-2.1,4.2-3.5c0-0.1,0.1-0.1,0.1-0.2c0.1,0.3,0.2,0.6,0.3,0.8c0.4,0.9,1,1.7,1.8,2.3
	c0.9,0.6,1.9,1,3,1c1.1,0.1,2.2,0,3.3-0.3c0.9-0.2,1.8-0.6,2.5-1.2c0.8-0.5,1.5-1.2,2.1-1.9c0.6-0.7,1.2-1.5,1.8-2.4
	c0.5,1.2,1.2,2.2,2.2,3c0.8,0.7,1.8,1.1,2.9,1.3c1,0.1,2.1,0,3.1-0.4c1.1-0.5,2.1-1.2,2.8-2.1c0.6-0.6,1.1-1.3,1.5-2.1
	c0.3,0.6,0.7,1.2,1.1,1.7c1,1.3,2.3,2.3,3.9,2.9c1.5,0.6,3.3,0.6,5.3,0.1c2.1-0.5,4.1-1.7,6.1-3.4c0.9-0.8,1.7-1.6,2.5-2.6
	c0.2,0.5,0.4,0.9,0.7,1.4c0.9,1.5,2.2,2.8,3.7,3.7c1.5,0.9,3.4,1.4,5.7,1.4c2.4,0,4.7-0.6,6.7-1.8c2.1-1.3,3.9-3.1,5.1-5.3
	c2,0,4-0.3,5.8-1c0.4-0.1,0.8-0.3,1.2-0.5c0.3,1.2,0.8,2.4,1.4,3.5c0.9,1.5,2.2,2.8,3.7,3.7c1.6,0.9,3.4,1.4,5.7,1.4
	c2.4,0,4.7-0.6,6.7-1.8c2.1-1.3,3.9-3.1,5-5.3c2,0,4-0.3,5.8-1c0.3-0.1,0.6-0.2,0.9-0.3c0,0.3,0,0.5-0.1,0.8
	c-0.2,2.6-0.4,5.3-0.6,7.9c-0.2,2.6-0.4,5.1-0.6,7.4c-0.2,2.3-0.3,4.3-0.5,6l5.9,1.2c0.1-0.8,0.2-2,0.3-3.4s0.3-3.2,0.5-5.4
	c0.2-2.1,0.5-4.7,0.8-7.7c1.5,0.9,3.2,1.5,5,1.7c1.8,0.3,3.7,0.3,5.5,0.1c1.9-0.2,3.8-0.6,5.6-1.3c1.8-0.6,3.6-1.5,5.2-2.5
	s3.1-2.1,4.4-3.5c1.2-1.2,2.3-2.6,3.2-4.2c0.5-0.6,0.8-1.3,0.9-2.1C271,271.6,270.9,270.9,270.7,270.2z M117.8,251.8
	c0.3-0.8,0.6-1.5,1-2.3c0.3-0.7,0.7-1.3,1.1-1.9c0.4-0.5,0.7-0.8,1-0.8s0.5,0.3,0.6,0.6c0.1,0.4,0,0.9-0.1,1.3
	c-0.2,0.6-0.4,1.2-0.7,1.7c-0.3,0.6-0.6,1.1-1,1.7c-0.3,0.5-0.7,0.9-1.2,1.2c-0.4,0.3-0.8,0.4-1.3,0.3
	C117.3,253.1,117.5,252.5,117.8,251.8z M104.2,277.8c-0.3,1.2-0.9,2.2-1.8,3.1c-0.3,0.3-0.6,0.5-1,0.6c-0.3,0.1-0.6,0-0.9-0.1
	c-0.3-0.2-0.5-0.4-0.6-0.7c-0.1-0.3-0.2-0.7-0.1-1.1c0.1-0.6,0.3-1.2,0.6-1.7c0.3-0.6,0.8-1.1,1.2-1.6c0.5-0.5,1.1-0.9,1.7-1.3
	s1.2-0.6,1.9-0.8C104.9,275.4,104.5,276.6,104.2,277.8L104.2,277.8z M161.6,268.5c0-0.6,0.1-1.3,0.2-1.9c0.1-0.9,0.3-1.8,0.5-2.9
	s0.5-2.2,0.8-3.5c0.3-1.2,0.6-2.5,1-3.7c0.4-1.2,0.7-2.3,1.1-3.4c0.4-1,0.8-1.9,1.2-2.9c0.3-0.7,0.8-1.3,1.3-1.9
	c0.4-0.5,0.9-0.7,1.3-0.7c0.4,0,0.6,0.3,0.7,0.9c0.1,0.7,0,1.4-0.1,2.1c-0.2,1-0.4,2-0.8,3c-0.3,1.1-0.8,2.3-1.3,3.6
	c-0.4,1-0.9,2.1-1.3,3.2c-0.5,1.1-1,2.1-1.5,3.1s-1,1.9-1.6,2.8C162.6,267,162.1,267.8,161.6,268.5L161.6,268.5z M192.3,277.8
	c-0.5,0.6-1.1,1-1.7,1.4c-0.6,0.4-1.3,0.7-2,0.9c-0.6,0.2-1.2,0.2-1.8,0.2c-1.4-0.2-2.6-0.9-3.5-2c-0.8-1-1.3-2.3-1.5-3.6
	c-0.2-1.4-0.2-2.9,0.1-4.4s0.7-2.9,1.4-4.3c0.6-1.3,1.4-2.4,2.3-3.4c0.8-0.9,1.8-1.5,3-1.8c-0.4,1.7-0.5,3.5-0.4,5.3
	s0.6,3.5,1.3,5.2c0.5,1,1,1.8,1.7,2.7c0.7,0.8,1.5,1.5,2.4,2.1C193.2,276.8,192.8,277.3,192.3,277.8L192.3,277.8z M196.6,269.9
	c-0.1,0.6-0.3,1-0.5,1.2c-0.4-0.2-0.8-0.7-1.4-1.6c-0.6-0.9-1-1.8-1.3-2.8s-0.4-2.1-0.3-3.1c0.1-1,0.7-1.9,1.6-2.4
	c0.3-0.2,0.7-0.1,0.9,0.2l0,0c0.3,0.5,0.5,1,0.7,1.5c0.2,0.8,0.3,1.5,0.3,2.3c0.1,0.8,0.1,1.7,0,2.5
	C196.8,268.5,196.7,269.2,196.6,269.9L196.6,269.9z M221.9,277.8c-0.5,0.6-1.1,1-1.7,1.4c-0.6,0.4-1.3,0.7-2,0.9
	c-0.6,0.2-1.2,0.2-1.8,0.2c-1.4-0.2-2.6-0.9-3.5-2c-0.8-1-1.3-2.3-1.5-3.6c-0.2-1.4-0.2-2.9,0.1-4.3c0.3-1.5,0.7-2.9,1.4-4.3
	c0.6-1.3,1.4-2.4,2.3-3.4c0.8-0.9,1.8-1.5,3-1.8c-0.4,1.7-0.5,3.5-0.4,5.3s0.6,3.5,1.3,5.2c0.5,1,1,1.8,1.7,2.7
	c0.7,0.8,1.5,1.5,2.4,2.1C222.8,276.8,222.4,277.3,221.9,277.8L221.9,277.8z M226.2,269.9c-0.1,0.6-0.3,1-0.5,1.2
	c-0.4-0.2-0.8-0.7-1.4-1.6c-0.6-0.9-1-1.8-1.3-2.8s-0.4-2.1-0.3-3.1c0.1-1,0.7-1.9,1.6-2.4c0.3-0.2,0.7-0.1,0.9,0.2l0,0
	c0.3,0.5,0.5,1,0.7,1.5c0.2,0.8,0.3,1.5,0.3,2.3c0.1,0.8,0.1,1.7,0.1,2.5C226.4,268.5,226.3,269.2,226.2,269.9L226.2,269.9z
	 M255.9,270.5c-0.1,1.6-0.4,3.1-0.8,4.6c-0.3,1.2-0.8,2.3-1.4,3.4c-0.7,0.9-1.6,1.7-2.6,2.2s-2.2,0.7-3.3,0.7s-2.1-0.4-3-1
	c-0.9-0.7-1.5-1.7-1.7-3.1c-0.1-1.2,0-2.4,0.4-3.5c0.4-1.3,0.9-2.6,1.5-3.9s1.3-2.5,2.2-3.6c0.7-1,1.6-2,2.6-2.8
	c0.7-0.7,1.6-1.1,2.6-1.4c0.8-0.2,1.7,0,2.3,0.6c0.7,0.7,1.2,1.7,1.4,3.2C255.9,267.4,256,269,255.9,270.5z"/>
<rect x="-7" y="59.3" class="st0" width="377" height="69"/>
</svg>
