<svg version="1.1" id="el_J9tJUnrLS" xmlns="http://www.w3.org/2000/svg" xmlns:xlink="http://www.w3.org/1999/xlink" x="0px" y="0px" viewBox="0 0 366 670" style="enable-background:new 0 0 366.2 670.6;" xml:space="preserve"><style>@-webkit-keyframes kf_el_hV6CBwNbvK_an_rIuBQg2Bh{0%{-webkit-transform: translate(505.6000061035156px, 669.4000015258789px) scale(1, 1) translate(-505.6000061035156px, -669.4000015258789px);transform: translate(505.6000061035156px, 669.4000015258789px) scale(1, 1) translate(-505.6000061035156px, -669.4000015258789px);}28.89%{-webkit-transform: translate(505.6000061035156px, 669.4000015258789px) scale(1, 1) translate(-505.6000061035156px, -669.4000015258789px);transform: translate(505.6000061035156px, 669.4000015258789px) scale(1, 1) translate(-505.6000061035156px, -669.4000015258789px);}75.56%{-webkit-transform: translate(505.6000061035156px, 669.4000015258789px) scale(20, 20) translate(-505.6000061035156px, -669.4000015258789px);transform: translate(505.6000061035156px, 669.4000015258789px) scale(20, 20) translate(-505.6000061035156px, -669.4000015258789px);}100%{-webkit-transform: translate(505.6000061035156px, 669.4000015258789px) scale(20, 20) translate(-505.6000061035156px, -669.4000015258789px);transform: translate(505.6000061035156px, 669.4000015258789px) scale(20, 20) translate(-505.6000061035156px, -669.4000015258789px);}}@keyframes kf_el_hV6CBwNbvK_an_rIuBQg2Bh{0%{-webkit-transform: translate(505.6000061035156px, 669.4000015258789px) scale(1, 1) translate(-505.6000061035156px, -669.4000015258789px);transform: translate(505.6000061035156px, 669.4000015258789px) scale(1, 1) translate(-505.6000061035156px, -669.4000015258789px);}28.89%{-webkit-transform: translate(505.6000061035156px, 669.4000015258789px) scale(1, 1) translate(-505.6000061035156px, -669.4000015258789px);transform: translate(505.6000061035156px, 669.4000015258789px) scale(1, 1) translate(-505.6000061035156px, -669.4000015258789px);}75.56%{-webkit-transform: translate(505.6000061035156px, 669.4000015258789px) scale(20, 20) translate(-505.6000061035156px, -669.4000015258789px);transform: translate(505.6000061035156px, 669.4000015258789px) scale(20, 20) translate(-505.6000061035156px, -669.4000015258789px);}100%{-webkit-transform: translate(505.6000061035156px, 669.4000015258789px) scale(20, 20) translate(-505.6000061035156px, -669.4000015258789px);transform: translate(505.6000061035156px, 669.4000015258789px) scale(20, 20) translate(-505.6000061035156px, -669.4000015258789px);}}#el_J9tJUnrLS *{-webkit-animation-duration: 3s;animation-duration: 3s;-webkit-animation-iteration-count: 1;animation-iteration-count: 1;-webkit-animation-timing-function: cubic-bezier(0, 0, 1, 1);animation-timing-function: cubic-bezier(0, 0, 1, 1);}#el_wZnbaiF01D{fill: #f800d4;}#el_hV6CBwNbvK{fill: #211915;}#el_JsaIQMz36S{fill: #F1E32E;}#el_hV6CBwNbvK_an_rIuBQg2Bh{-webkit-animation-fill-mode: backwards;animation-fill-mode: backwards;-webkit-transform: translate(505.6000061035156px, 669.4000015258789px) scale(1, 1) translate(-505.6000061035156px, -669.4000015258789px);transform: translate(505.6000061035156px, 669.4000015258789px) scale(1, 1) translate(-505.6000061035156px, -669.4000015258789px);-webkit-animation-name: kf_el_hV6CBwNbvK_an_rIuBQg2Bh;animation-name: kf_el_hV6CBwNbvK_an_rIuBQg2Bh;-webkit-animation-timing-function: cubic-bezier(0, 0, 1, 1);animation-timing-function: cubic-bezier(0, 0, 1, 1);}</style>

<rect x="-6.8" y="-9" width="381" height="691.5" id="el_wZnbaiF01D"/>
<title>logosvg2</title>
<g id="el_hV6CBwNbvK_an_rIuBQg2Bh" data-animator-group="true" data-animator-type="2"><ellipse cx="505.6" cy="669.4" rx="163.9" ry="64.4" id="el_hV6CBwNbvK"/></g>
<path d="M270.7,270.2c-0.1-0.5-0.4-1-0.9-1.4c-0.4-0.3-0.8-0.2-1.2,0.2c-1.5,2.4-3,4.2-4.4,5.5c-1.3,1.2-2.7,2.2-4.2,3&#10;&#9;c0.7-1.9,1.2-3.9,1.5-5.9c0.3-2.1,0.3-4.3-0.1-6.5c-0.3-2-0.9-3.9-1.8-5.6c-0.8-1.6-2.2-2.9-3.9-3.6c-1.3-0.6-2.8-0.7-4.2-0.4&#10;&#9;c-1.4,0.3-2.7,0.9-3.9,1.8c-1.2,0.8-2.3,1.9-3.2,3c-0.8,1-1.5,2.2-1.9,3.5l0.5-6.3c0.1-0.6-0.2-1.3-0.8-1.6&#10;&#9;c-0.6-0.4-1.2-0.7-1.9-0.8c-0.7-0.1-1.4,0-2.1,0.3c-0.7,0.3-1.1,0.9-1.2,1.7c0,0.1-0.1,0.8-0.2,2c-0.1,1.2-0.2,2.8-0.3,4.7&#10;&#9;c-0.1,1.9-0.3,4.1-0.5,6.6c0,0.4-0.1,0.8-0.1,1.3c-0.3,0.2-0.6,0.3-0.9,0.5c-0.6,0.3-1.2,0.5-1.8,0.7c-0.7,0.2-1.4,0.3-2.2,0.3&#10;&#9;c0.1-0.7,0.3-1.3,0.3-2c0.1-0.7,0.2-1.5,0.2-2.3c0-0.8,0.1-1.6,0.1-2.4c0-0.8-0.1-1.5-0.1-2.2c-0.2-1.4-0.5-2.8-0.9-4.1&#10;&#9;c-0.4-1.2-1-2.3-1.8-3.3c-0.8-0.9-1.8-1.5-2.9-1.8c-1.2-0.3-2.5-0.2-4.1,0.3c-2.1-0.3-4.2-0.1-6.2,0.6c-1.8,0.7-3.4,1.8-4.8,3.2&#10;&#9;c-1.4,1.4-2.5,3.1-3.3,4.9c-1.2,2.5-1.8,5.3-1.9,8c-0.1,0-0.2,0.1-0.2,0.1c-0.6,0.3-1.2,0.5-1.8,0.7c-0.7,0.2-1.4,0.3-2.2,0.3&#10;&#9;c0.1-0.7,0.3-1.3,0.3-2c0.1-0.7,0.1-1.5,0.2-2.3c0-0.8,0.1-1.6,0-2.4c0-0.8-0.1-1.5-0.1-2.2c-0.2-1.4-0.5-2.8-0.9-4.1&#10;&#9;c-0.4-1.2-1-2.3-1.8-3.3c-0.8-0.9-1.8-1.5-2.9-1.8c-1.2-0.3-2.5-0.2-4.1,0.3c-2.1-0.3-4.2-0.1-6.2,0.6c-1.8,0.7-3.4,1.8-4.8,3.2&#10;&#9;c-1.4,1.4-2.5,3.1-3.3,4.9c-0.8,1.8-1.4,3.8-1.7,5.7c-0.1,0.8-0.2,1.7-0.2,2.6c-0.5,1-1.1,1.9-1.8,2.7c-0.9,1.1-1.9,2.1-3,3&#10;&#9;c-0.8,0.6-1.6,1.2-2.5,1.6c-0.8,0.4-1.6,0.5-2.4,0.5c-0.8,0-1.5-0.4-2-0.9c-0.6-0.6-1-1.5-1.3-2.7c1.7-2.1,3.2-4.3,4.5-6.5&#10;&#9;c1.4-2.3,2.7-4.7,3.9-7.2c1.1-2.3,2-4.7,2.7-7.1c0.7-2.1,1.1-4.2,1.3-6.3c0.1-1.9-0.1-3.5-0.6-4.8c-0.4-1.2-1.5-2.2-2.8-2.4&#10;&#9;c-1.5-0.4-3.1-0.5-4.7-0.1c-1.4,0.4-2.7,1.1-3.7,2.1c-1.2,1.1-2.1,2.4-2.9,3.8c-0.8,1.6-1.5,3.3-2.1,5c-0.5,1.5-0.9,3-1.2,4.5&#10;&#9;c-0.3,1.5-0.6,3.1-0.8,4.7c-0.2,1.6-0.3,3.1-0.4,4.6c-0.1,1.5-0.1,3-0.1,4.4c0,1,0.1,2,0.2,3c-0.5,1.3-1.1,2.5-1.8,3.6&#10;&#9;c-0.9,1.3-1.8,1.8-2.9,1.7c-0.5-0.2-0.8-0.7-0.9-1.4c-0.2-0.9-0.2-1.8-0.2-2.7c0.1-1.1,0.2-2.3,0.4-3.7c0.2-1.4,0.5-2.8,0.8-4.2&#10;&#9;c0.3-1.5,0.6-2.9,1-4.4c0.3-1.5,0.6-2.9,0.9-4.2c0-1.2-0.4-2.1-1-2.7c-0.6-0.6-1.6-0.9-2.7-0.7c-0.7,0.3-1.3,0.7-1.8,1.3&#10;&#9;c-0.4,0.6-0.7,1.3-0.9,2.1c-0.1,0.4-0.3,1.3-0.6,2.6c-0.3,1.3-0.6,2.8-1,4.5c-0.4,1.7-0.9,3.5-1.5,5.3c-0.5,1.7-1.2,3.4-1.9,5&#10;&#9;c-0.6,1.3-1.4,2.5-2.3,3.6c-0.8,0.9-1.7,1.3-2.7,1.1c-0.5-0.1-0.9-0.7-1-1.7c-0.2-1.2-0.2-2.5-0.1-3.7c0.1-1.6,0.3-3.3,0.6-4.9&#10;&#9;c0.3-1.8,0.6-3.4,0.9-5c0.3-1.6,0.6-3,0.9-4.2c0.3-1.2,0.5-2,0.6-2.4c0-0.8-0.2-1.7-0.7-2.3c-0.8-1.1-2.3-1.5-3.5-0.9&#10;&#9;c-0.7,0.4-1.3,1-1.7,1.7c-0.2,0.9-0.4,2-0.7,3.2s-0.5,2.4-0.8,3.7c-0.3,1.3-0.5,2.5-0.7,3.7c-0.2,1.2-0.4,2.3-0.5,3.2&#10;&#9;c-0.1,0.6-0.1,1.3-0.2,2c-0.2,0.5-0.3,1.1-0.6,1.6c-0.5,1.2-1.1,2.3-1.8,3.3c-0.7,1-1.6,1.8-2.6,2.4c-1,0.6-2.2,1-3.4,0.9&#10;&#9;c-1,0-1.9-0.6-2.4-1.4c-0.7-1-1.4-2-1.9-3.1c-0.6-1.2-1.3-2.5-2.1-3.7c-0.8-1.3-1.8-2.4-3.1-3.2c0.2-0.7,0.5-1.5,0.7-2.4&#10;&#9;c0.3-0.9,0.5-1.8,0.8-2.7c0.3-0.9,0.5-1.8,0.8-2.7c0.3-0.9,0.5-1.7,0.8-2.3c1.2,0,2.3-0.2,3.4-0.8c1.3-0.6,2.5-1.4,3.5-2.4&#10;&#9;c1.1-1.1,2.1-2.3,2.8-3.7c0.8-1.3,1.2-2.8,1.3-4.4c0.1-0.8,0-1.7-0.3-2.5c-0.4-1.4-1.3-2.6-2.5-3.4c-0.5-0.4-1.2-0.6-1.8-0.8&#10;&#9;c-1.6-0.5-3-0.4-4.2,0.3c-1.2,0.7-2.2,1.6-3,2.7c-0.8,1.2-1.5,2.5-2,3.9c-0.5,1.4-1,2.6-1.3,3.6c-0.9-0.6-1.7-1.3-2.4-2.1&#10;&#9;c-0.6-0.7-1.1-1.4-1.4-2.2c-0.4-0.8-0.6-1.6-0.8-2.4c-0.2-0.9-0.4-1.8-0.5-2.8c-0.3-0.8-0.7-1.4-1.4-1.6c-0.7-0.2-1.4-0.2-2,0.1&#10;&#9;c-0.7,0.3-1.3,0.8-1.7,1.5c-0.5,0.7-0.6,1.6-0.4,2.4c0.2,1.1,0.4,2.2,0.8,3.3c0.4,1.2,0.9,2.4,1.6,3.5c0.7,1.2,1.5,2.3,2.5,3.4&#10;&#9;c1.1,1.1,2.4,2.1,3.8,2.9c-0.4,1.7-0.9,3.4-1.4,5.2c-0.6,1.8-1,3.3-1.4,4.7c-1.9,0-3.8,0.4-5.5,1.3c-1.8,0.9-3.3,2.2-4.5,3.8&#10;&#9;c-1.1,1.3-1.8,2.8-2.2,4.5c-0.3,1.4-0.3,2.9,0,4.4c0.3,1.3,1,2.5,1.9,3.4c1,0.9,2.3,1.5,3.6,1.7c1.4,0.2,2.9,0,4.2-0.6&#10;&#9;c1.2-0.6,2.2-1.4,3-2.5c0.9-1.1,1.6-2.3,2.1-3.6c0.5-1.3,1-2.6,1.4-3.9c0.8,1.2,1.4,2.4,2,3.7c0.5,1.1,1.1,2.2,1.8,3.3&#10;&#9;c0.7,1,1.5,1.8,2.5,2.4c1,0.7,2.3,1.1,4,1.2c1.9,0.2,3.9-0.1,5.6-1c1.6-0.9,3-2.1,4.2-3.5c0-0.1,0.1-0.1,0.1-0.2&#10;&#9;c0.1,0.3,0.2,0.6,0.3,0.8c0.4,0.9,1,1.7,1.8,2.3c0.9,0.6,1.9,1,3,1c1.1,0.1,2.2,0,3.3-0.3c0.9-0.2,1.8-0.6,2.5-1.2&#10;&#9;c0.8-0.5,1.5-1.2,2.1-1.9c0.6-0.7,1.2-1.5,1.8-2.4c0.5,1.2,1.2,2.2,2.2,3c0.8,0.7,1.8,1.1,2.9,1.3c1,0.1,2.1,0,3.1-0.4&#10;&#9;c1.1-0.5,2.1-1.2,2.8-2.1c0.6-0.6,1.1-1.3,1.5-2.1c0.3,0.6,0.7,1.2,1.1,1.7c1,1.3,2.3,2.3,3.9,2.9c1.5,0.6,3.3,0.6,5.3,0.1&#10;&#9;c2.1-0.5,4.1-1.7,6.1-3.4c0.9-0.8,1.7-1.6,2.5-2.6c0.2,0.5,0.4,0.9,0.7,1.4c0.9,1.5,2.2,2.8,3.7,3.7c1.5,0.9,3.4,1.4,5.7,1.4&#10;&#9;c2.4,0,4.7-0.6,6.7-1.8c2.1-1.3,3.9-3.1,5.1-5.3c2,0,4-0.3,5.8-1c0.4-0.1,0.8-0.3,1.2-0.5c0.3,1.2,0.8,2.4,1.4,3.5&#10;&#9;c0.9,1.5,2.2,2.8,3.7,3.7c1.6,0.9,3.4,1.4,5.7,1.4c2.4,0,4.7-0.6,6.7-1.8c2.1-1.3,3.9-3.1,5-5.3c2,0,4-0.3,5.8-1&#10;&#9;c0.3-0.1,0.6-0.2,0.9-0.3c0,0.3,0,0.5-0.1,0.8c-0.2,2.6-0.4,5.3-0.6,7.9c-0.2,2.6-0.4,5.1-0.6,7.4c-0.2,2.3-0.3,4.3-0.5,6l5.9,1.2&#10;&#9;c0.1-0.8,0.2-2,0.3-3.4s0.3-3.2,0.5-5.4c0.2-2.1,0.5-4.7,0.8-7.7c1.5,0.9,3.2,1.5,5,1.7c1.8,0.3,3.7,0.3,5.5,0.1&#10;&#9;c1.9-0.2,3.8-0.6,5.6-1.3c1.8-0.6,3.6-1.5,5.2-2.5c1.6-1,3.1-2.1,4.4-3.5c1.2-1.2,2.3-2.6,3.2-4.2c0.5-0.6,0.8-1.3,0.9-2.1&#10;&#9;C271,271.6,270.9,270.9,270.7,270.2z M117.8,251.8c0.3-0.8,0.6-1.5,1-2.3c0.3-0.7,0.7-1.3,1.1-1.9c0.4-0.5,0.7-0.8,1-0.8&#10;&#9;c0.3,0,0.5,0.3,0.6,0.6c0.1,0.4,0,0.9-0.1,1.3c-0.2,0.6-0.4,1.2-0.7,1.7c-0.3,0.6-0.6,1.1-1,1.7c-0.3,0.5-0.7,0.9-1.2,1.2&#10;&#9;c-0.4,0.3-0.8,0.4-1.3,0.3C117.3,253.1,117.5,252.5,117.8,251.8z M104.2,277.8c-0.3,1.2-0.9,2.2-1.8,3.1c-0.3,0.3-0.6,0.5-1,0.6&#10;&#9;c-0.3,0.1-0.6,0-0.9-0.1c-0.3-0.2-0.5-0.4-0.6-0.7c-0.1-0.3-0.2-0.7-0.1-1.1c0.1-0.6,0.3-1.2,0.6-1.7c0.3-0.6,0.8-1.1,1.2-1.6&#10;&#9;c0.5-0.5,1.1-0.9,1.7-1.3c0.6-0.4,1.2-0.6,1.9-0.8C104.9,275.4,104.5,276.6,104.2,277.8L104.2,277.8z M161.6,268.5&#10;&#9;c0-0.6,0.1-1.3,0.2-1.9c0.1-0.9,0.3-1.8,0.5-2.9c0.2-1.1,0.5-2.2,0.8-3.5c0.3-1.2,0.6-2.5,1-3.7s0.7-2.3,1.1-3.4&#10;&#9;c0.4-1,0.8-1.9,1.2-2.9c0.3-0.7,0.8-1.3,1.3-1.9c0.4-0.5,0.9-0.7,1.3-0.7c0.4,0,0.6,0.3,0.7,0.9c0.1,0.7,0,1.4-0.1,2.1&#10;&#9;c-0.2,1-0.4,2-0.8,3c-0.3,1.1-0.8,2.3-1.3,3.6c-0.4,1-0.9,2.1-1.3,3.2c-0.5,1.1-1,2.1-1.5,3.1c-0.5,1-1,1.9-1.6,2.8&#10;&#9;C162.6,267,162.1,267.8,161.6,268.5L161.6,268.5z M192.3,277.8c-0.5,0.6-1.1,1-1.7,1.4c-0.6,0.4-1.3,0.7-2,0.9&#10;&#9;c-0.6,0.2-1.2,0.2-1.8,0.2c-1.4-0.2-2.6-0.9-3.5-2c-0.8-1-1.3-2.3-1.5-3.6c-0.2-1.4-0.2-2.9,0.1-4.4c0.3-1.5,0.7-2.9,1.4-4.3&#10;&#9;c0.6-1.3,1.4-2.4,2.3-3.4c0.8-0.9,1.8-1.5,3-1.8c-0.4,1.7-0.5,3.5-0.4,5.3c0.1,1.8,0.6,3.5,1.3,5.2c0.5,1,1,1.8,1.7,2.7&#10;&#9;c0.7,0.8,1.5,1.5,2.4,2.1C193.2,276.8,192.8,277.3,192.3,277.8L192.3,277.8z M196.6,269.9c-0.1,0.6-0.3,1-0.5,1.2&#10;&#9;c-0.4-0.2-0.8-0.7-1.4-1.6c-0.6-0.9-1-1.8-1.3-2.8c-0.3-1-0.4-2.1-0.3-3.1c0.1-1,0.7-1.9,1.6-2.4c0.3-0.2,0.7-0.1,0.9,0.2&#10;&#9;c0,0,0,0,0,0c0.3,0.5,0.5,1,0.7,1.5c0.2,0.8,0.3,1.5,0.3,2.3c0.1,0.8,0.1,1.7,0,2.5C196.8,268.5,196.7,269.2,196.6,269.9&#10;&#9;L196.6,269.9z M221.9,277.8c-0.5,0.6-1.1,1-1.7,1.4c-0.6,0.4-1.3,0.7-2,0.9c-0.6,0.2-1.2,0.2-1.8,0.2c-1.4-0.2-2.6-0.9-3.5-2&#10;&#9;c-0.8-1-1.3-2.3-1.5-3.6c-0.2-1.4-0.2-2.9,0.1-4.3c0.3-1.5,0.7-2.9,1.4-4.3c0.6-1.3,1.4-2.4,2.3-3.4c0.8-0.9,1.8-1.5,3-1.8&#10;&#9;c-0.4,1.7-0.5,3.5-0.4,5.3c0.1,1.8,0.6,3.5,1.3,5.2c0.5,1,1,1.8,1.7,2.7c0.7,0.8,1.5,1.5,2.4,2.1&#10;&#9;C222.8,276.8,222.4,277.3,221.9,277.8L221.9,277.8z M226.2,269.9c-0.1,0.6-0.3,1-0.5,1.2c-0.4-0.2-0.8-0.7-1.4-1.6&#10;&#9;c-0.6-0.9-1-1.8-1.3-2.8c-0.3-1-0.4-2.1-0.3-3.1c0.1-1,0.7-1.9,1.6-2.4c0.3-0.2,0.7-0.1,0.9,0.2c0,0,0,0,0,0c0.3,0.5,0.5,1,0.7,1.5&#10;&#9;c0.2,0.8,0.3,1.5,0.3,2.3c0.1,0.8,0.1,1.7,0.1,2.5C226.4,268.5,226.3,269.2,226.2,269.9L226.2,269.9z M255.9,270.5&#10;&#9;c-0.1,1.6-0.4,3.1-0.8,4.6c-0.3,1.2-0.8,2.3-1.4,3.4c-0.7,0.9-1.6,1.7-2.6,2.2c-1,0.5-2.2,0.7-3.3,0.7c-1.1,0-2.1-0.4-3-1&#10;&#9;c-0.9-0.7-1.5-1.7-1.7-3.1c-0.1-1.2,0-2.4,0.4-3.5c0.4-1.3,0.9-2.6,1.5-3.9c0.6-1.3,1.3-2.5,2.2-3.6c0.7-1,1.6-2,2.6-2.8&#10;&#9;c0.7-0.7,1.6-1.1,2.6-1.4c0.8-0.2,1.7,0,2.3,0.6c0.7,0.7,1.2,1.7,1.4,3.2C255.9,267.4,256,269,255.9,270.5z" id="el_JsaIQMz36S"/>
</svg>