<svg id="Capa_1" data-name="Capa 1" xmlns="http://www.w3.org/2000/svg" viewBox="0 0 313.38 204.33"><defs><style>.cls-1{fill:#494949;opacity:0.26;}.cls-2{fill:#f4f4f4;}.cls-3{fill:#af533e;}.cls-4{fill:#9dc44d;}.cls-5{opacity:0.59;}.cls-6{fill:#73892e;}.cls-7{fill:#fff;}.cls-31,.cls-8{fill:#434244;}.cls-9{opacity:0.28;}.cls-10{fill:#a54444;}.cls-11{fill:#b54d4d;}.cls-12{fill:#cc5252;}.cls-13{fill:#2c5768;}.cls-14{fill:#3f647e;}.cls-15{fill:#507991;}.cls-16{fill:#f1d3d0;}.cls-17{fill:#ddb5b3;}.cls-18{fill:#5a9b83;}.cls-19{fill:#6fb59e;}.cls-20{fill:#cca2a2;}.cls-21{fill:#645149;}.cls-22{fill:#dd9a6c;}.cls-23{fill:#ffbb83;}.cls-24{fill:#8e3838;}.cls-25{fill:#a03c3c;}.cls-26{fill:#7f2b2b;}.cls-27{fill:#8c3131;}.cls-28{fill:#9b3d3d;}.cls-29{fill:#eaa673;}.cls-30{fill:#493415;}.cls-31{opacity:0.15;}</style></defs><title>metegols</title><path class="cls-1" d="M276.74,121.39c-9.73-25.13-19.31-61.84,2.09-81,4.47-4,10.74-5.66,15.64-2.27,19.07,13.2,20.3,52,18.11,75.93-.56,6.12-1.52,12.31-4,17.6s-6.67,9.58-11.59,10.18c-4.57.55-9.16-2.15-12.54-6.14S278.76,126.6,276.74,121.39Z"/><path class="cls-1" d="M45.37,119.4c4.63,19.36,6.71,46.39-18.86,53.29-5.34,1.44-12,.84-16.26-2.75C-6.29,156,.5,129.84,7.67,114.5c1.83-3.91,4.08-7.77,7.66-10.61a17.54,17.54,0,0,1,13.81-3.63,18.77,18.77,0,0,1,11.39,7.49A32,32,0,0,1,45.37,119.4Z"/><rect class="cls-2" x="88.34" y="145.6" width="7.82" height="1.66"/><rect class="cls-2" x="214.43" y="145.6" width="6.48" height="1.66"/><rect class="cls-2" x="214.43" y="86.72" width="6.48" height="1.4"/><rect class="cls-2" x="88.34" y="86.72" width="7.82" height="1.4"/><rect class="cls-2" x="214.43" y="60.67" width="6.48" height="1.53"/><rect class="cls-2" x="88.34" y="60.67" width="7.82" height="1.53"/><rect class="cls-2" x="88.34" y="31.81" width="7.82" height="1.4"/><rect class="cls-2" x="214.43" y="31.81" width="6.48" height="1.4"/><rect class="cls-3" x="53.11" y="43.17" width="204.33" height="118" transform="translate(53.11 257.44) rotate(-90)"/><rect class="cls-4" x="60.77" y="49.6" width="189" height="105.14" transform="translate(53.11 257.44) rotate(-90)"/><g class="cls-5"><polygon class="cls-6" points="102.7 196.67 105.41 196.67 105.41 10.92 207.84 10.92 207.84 7.67 102.7 7.67 102.7 196.67"/></g><rect class="cls-7" x="102.15" y="101.89" width="108.22" height="0.55"/><path class="cls-7" d="M186.62,166.59v31.57H124.85V166.59Zm-.55,31V167.14H125.39v30.48Z"/><path class="cls-7" d="M175.07,181v16.75H136.4V181Zm-.54,16.21V181.55H136.94v15.66Z"/><path class="cls-7" d="M176,102.18a15.73,15.73,0,1,1-15.73-15.73A15.74,15.74,0,0,1,176,102.18Zm-30.91,0A15.19,15.19,0,1,0,160.25,87,15.2,15.2,0,0,0,145.07,102.18Z"/><path class="cls-7" d="M168.09,167H143.38l.12-.35a12.88,12.88,0,0,1,24.47,0Zm-24-.54h23.2a12.35,12.35,0,0,0-23.2,0Z"/><path class="cls-7" d="M186.62,6.47V38H124.85V6.47Zm-.55,31V7H125.39V37.49Z"/><path class="cls-7" d="M175.07,6.88V23.63H136.4V6.88Zm-.54,16.2V7.42H136.94V23.08Z"/><path class="cls-7" d="M168.09,37.63,168,38a12.88,12.88,0,0,1-24.47,0l-.12-.35Zm-24,.54a12.35,12.35,0,0,0,23.2,0Z"/><rect class="cls-2" x="154.51" y="119.55" width="1.53" height="105.23" transform="translate(-16.89 327.44) rotate(-90)"/><rect class="cls-2" x="154.44" y="93.81" width="1.66" height="105.23" transform="translate(8.85 301.7) rotate(-90)"/><rect class="cls-2" x="154.63" y="64.63" width="1.28" height="105.23" transform="translate(38.03 272.52) rotate(-90)"/><rect class="cls-2" x="154.57" y="34.81" width="1.4" height="105.23" transform="translate(67.85 242.7) rotate(-90)"/><rect class="cls-2" x="154.51" y="8.82" width="1.53" height="105.23" transform="translate(93.84 216.71) rotate(-90)"/><rect class="cls-2" x="154.57" y="-20.1" width="1.4" height="105.23" transform="translate(122.76 187.78) rotate(-90)"/><rect class="cls-2" x="88.35" y="171.4" width="7.81" height="1.53"/><rect class="cls-2" x="214.43" y="171.4" width="6.35" height="1.53"/><rect class="cls-2" x="88.35" y="116.61" width="7.81" height="1.28"/><rect class="cls-2" x="214.43" y="116.61" width="6.35" height="1.28"/><path class="cls-8" d="M238.92,172.16h0a3.19,3.19,0,0,1-3.19,3.19H219.46a2,2,0,0,1-2-2V171a2,2,0,0,1,2-2h16.27A3.19,3.19,0,0,1,238.92,172.16Z"/><path class="cls-8" d="M238.92,117.12h0a3.19,3.19,0,0,1-3.19,3.19H219.46a2,2,0,0,1-2-2v-2.4a2,2,0,0,1,2-2h16.27A3.19,3.19,0,0,1,238.92,117.12Z"/><path class="cls-8" d="M238.92,61.05h0a3.19,3.19,0,0,1-3.19,3.2H219.46a2,2,0,0,1-2-2V59.85a2,2,0,0,1,2-2h16.27A3.19,3.19,0,0,1,238.92,61.05Z"/><path class="cls-8" d="M92.43,145.23v2.41a2,2,0,0,1-2,2H74.16a3.19,3.19,0,0,1-3.19-3.2h0a3.19,3.19,0,0,1,3.19-3.19H90.44A2,2,0,0,1,92.43,145.23Z"/><path class="cls-8" d="M92.88,86v2.41a2,2,0,0,1-2,2H74.61a3.19,3.19,0,0,1-3.19-3.2h0A3.19,3.19,0,0,1,74.61,84H90.89A2,2,0,0,1,92.88,86Z"/><path class="cls-8" d="M92.88,31.24v2.41a2,2,0,0,1-2,2H74.61a3.19,3.19,0,0,1-3.19-3.19h0a3.19,3.19,0,0,1,3.19-3.2H90.89A2,2,0,0,1,92.88,31.24Z"/><path class="cls-3" d="M96.36,204.33h118V0h-118ZM207.93,7.67v189H102.8V7.67Z"/><g class="cls-9"><path class="cls-8" d="M156.79,163a14.32,14.32,0,0,0-2,1,2.16,2.16,0,0,0-.76.77,2.57,2.57,0,0,0-.17,1.55,2.48,2.48,0,0,0,.69,1.32,3.67,3.67,0,0,0,1.23.54,8.84,8.84,0,0,0,1.8.53,18.75,18.75,0,0,0,3.59.26,3.15,3.15,0,0,0,1.06,0h.21a19.76,19.76,0,0,0,3.25-.39c.76-.17,2.06-.35,2.5-1.14a3.56,3.56,0,0,0,.48-2.26c-.17-.78-1.08-1.19-1.65-1.56a10.17,10.17,0,0,0-6.37-1.71A11.48,11.48,0,0,0,156.79,163Z"/><path class="cls-8" d="M161.56,25a20.87,20.87,0,0,0-3.53.23,9.7,9.7,0,0,0-1.76.46,3.86,3.86,0,0,0-1.21.47,2.12,2.12,0,0,0-.68,1.15,1.68,1.68,0,0,0,.92,2,13.85,13.85,0,0,0,2,.87,12.47,12.47,0,0,0,3.74,1,11,11,0,0,0,6.25-1.49c.56-.32,1.46-.68,1.62-1.35a2.85,2.85,0,0,0-.46-2c-.44-.69-1.71-.85-2.46-1a22.71,22.71,0,0,0-3.19-.34h-.2A3.7,3.7,0,0,0,161.56,25Z"/><path class="cls-8" d="M127.51,137.32a12.88,12.88,0,0,0-2.12,1.09,2.21,2.21,0,0,0-.79.84,2.82,2.82,0,0,0-.17,1.68,2.73,2.73,0,0,0,.71,1.44,3.56,3.56,0,0,0,1.28.59,8.78,8.78,0,0,0,1.85.57,16.9,16.9,0,0,0,2.92.29,3,3,0,0,0,3-.11,16.43,16.43,0,0,0,2.52-.35c.8-.19,2.14-.38,2.6-1.25a4.11,4.11,0,0,0,.49-2.47c-.17-.85-1.12-1.3-1.71-1.7a10.21,10.21,0,0,0-6.6-1.87A11.82,11.82,0,0,0,127.51,137.32Z"/><path class="cls-8" d="M116,108a16.15,16.15,0,0,0-2.3,1,1.93,1.93,0,0,0-1,2.31,2.36,2.36,0,0,0,.78,1.32,4.1,4.1,0,0,0,1.39.53,10.72,10.72,0,0,0,2,.53,22.46,22.46,0,0,0,3.17.26,3.82,3.82,0,0,0,3.24-.09,23,23,0,0,0,2.74-.33c.86-.17,2.32-.35,2.82-1.14a3.18,3.18,0,0,0,.53-2.26c-.18-.78-1.21-1.19-1.86-1.56a12.71,12.71,0,0,0-7.18-1.71A14.63,14.63,0,0,0,116,108Z"/><path class="cls-8" d="M152,108.22a14,14,0,0,0-2.06.9,1.72,1.72,0,0,0-1,2.07,2.14,2.14,0,0,0,.7,1.19,4.11,4.11,0,0,0,1.25.48,10.25,10.25,0,0,0,1.81.47,21.08,21.08,0,0,0,2.86.24,3.42,3.42,0,0,0,2.9-.09,20.14,20.14,0,0,0,2.46-.29c.77-.16,2.08-.32,2.53-1a2.88,2.88,0,0,0,.48-2c-.16-.7-1.09-1.06-1.67-1.39a11.24,11.24,0,0,0-6.45-1.54A13.36,13.36,0,0,0,152,108.22Z"/><path class="cls-8" d="M186.26,109.14a12,12,0,0,0-1.73.74,1.82,1.82,0,0,0-.65.58,1.67,1.67,0,0,0-.14,1.16,1.85,1.85,0,0,0,.58,1,3.8,3.8,0,0,0,1.05.4,8.72,8.72,0,0,0,1.52.4,17.37,17.37,0,0,0,2.39.19,2.89,2.89,0,0,0,2.44-.07,15.93,15.93,0,0,0,2.05-.25c.65-.12,1.75-.26,2.12-.86a2.38,2.38,0,0,0,.41-1.7c-.14-.58-.92-.89-1.4-1.17a9.49,9.49,0,0,0-5.4-1.28A10.72,10.72,0,0,0,186.26,109.14Z"/><path class="cls-8" d="M120.35,53.14a10.38,10.38,0,0,0-1.82.48,4.17,4.17,0,0,0-1.26.48,2.2,2.2,0,0,0-.7,1.2,2,2,0,0,0,.17,1.39,2.08,2.08,0,0,0,.78.69,13.2,13.2,0,0,0,2.08.9,12.81,12.81,0,0,0,3.88,1A11.35,11.35,0,0,0,130,57.77c.58-.33,1.51-.7,1.68-1.41a2.9,2.9,0,0,0-.48-2c-.46-.71-1.77-.88-2.55-1a18.69,18.69,0,0,0-2.47-.29,3.45,3.45,0,0,0-2.93-.09A21.22,21.22,0,0,0,120.35,53.14Z"/><path class="cls-8" d="M173.1,52.47a20.16,20.16,0,0,0-2.91.24,9.77,9.77,0,0,0-1.84.48,3.9,3.9,0,0,0-1.27.49,2.18,2.18,0,0,0-.71,1.2,2.08,2.08,0,0,0,.17,1.41,2,2,0,0,0,.79.7,15,15,0,0,0,2.1.91,12.77,12.77,0,0,0,3.93,1,11.53,11.53,0,0,0,6.56-1.56c.59-.33,1.53-.71,1.7-1.42a3,3,0,0,0-.49-2.06c-.46-.73-1.79-.89-2.58-1a18.94,18.94,0,0,0-2.5-.29A3.46,3.46,0,0,0,173.1,52.47Z"/><path class="cls-8" d="M126.19,77.6a9.71,9.71,0,0,0-1.78.47,3.88,3.88,0,0,0-1.23.47,2.09,2.09,0,0,0-.68,1.17,2,2,0,0,0,.16,1.35,2.07,2.07,0,0,0,.76.68,15.18,15.18,0,0,0,2,.88,12.8,12.8,0,0,0,3.79,1,11.1,11.1,0,0,0,6.32-1.5c.57-.33,1.48-.69,1.64-1.38a2.79,2.79,0,0,0-.47-2c-.44-.71-1.73-.86-2.49-1a19.34,19.34,0,0,0-2.41-.29,3.38,3.38,0,0,0-2.85-.08A19.93,19.93,0,0,0,126.19,77.6Z"/><path class="cls-8" d="M161.58,77.72a8.36,8.36,0,0,0-1.7.45,3.52,3.52,0,0,0-1.17.45,2,2,0,0,0-.66,1.11,1.88,1.88,0,0,0,.16,1.3,1.77,1.77,0,0,0,.73.65,12.35,12.35,0,0,0,1.94.84,12.13,12.13,0,0,0,3.63,1A10.69,10.69,0,0,0,170.58,82c.54-.31,1.41-.65,1.57-1.31a2.76,2.76,0,0,0-.46-1.91c-.42-.67-1.65-.82-2.38-1a16.33,16.33,0,0,0-2.32-.28,3.25,3.25,0,0,0-2.73-.08A20,20,0,0,0,161.58,77.72Z"/><path class="cls-8" d="M198.44,78a19.31,19.31,0,0,0-2.64.21,9.68,9.68,0,0,0-1.68.45,3.53,3.53,0,0,0-1.16.44,2,2,0,0,0-.64,1.1,1.83,1.83,0,0,0,.15,1.28,1.93,1.93,0,0,0,.72.64,13.09,13.09,0,0,0,1.92.83,12,12,0,0,0,3.57.95,10.53,10.53,0,0,0,6-1.42c.54-.31,1.4-.65,1.55-1.3a2.73,2.73,0,0,0-.45-1.88c-.42-.66-1.63-.81-2.35-1a17.3,17.3,0,0,0-2.28-.27A3.2,3.2,0,0,0,198.44,78Z"/><path class="cls-8" d="M185.89,138a13.84,13.84,0,0,0-2.06,1,2.12,2.12,0,0,0-.77.75,2.44,2.44,0,0,0-.17,1.51,2.41,2.41,0,0,0,.7,1.29,3.81,3.81,0,0,0,1.24.53,9.59,9.59,0,0,0,1.81.52,19.08,19.08,0,0,0,2.83.25,3.14,3.14,0,0,0,2.89-.1,18.23,18.23,0,0,0,2.45-.31c.78-.17,2.08-.34,2.53-1.12a3.42,3.42,0,0,0,.47-2.22c-.16-.76-1.08-1.16-1.66-1.52a10.44,10.44,0,0,0-6.41-1.67A12,12,0,0,0,185.89,138Z"/></g><path class="cls-10" d="M153.08,175.25a6.91,6.91,0,0,0,.79.33c1,.28,2-.26,3-.28a4.69,4.69,0,0,0,1.06,0,8.4,8.4,0,0,0,1.14-.53,7.42,7.42,0,0,1,1.15-.28,5.36,5.36,0,0,0,1.1-.4,1.57,1.57,0,0,0,.47-.34,1.66,1.66,0,0,0,.24-.48,2.23,2.23,0,0,0-.25-2.17,9.34,9.34,0,0,0-1.33-.89c-.43-.32-.72-.8-1.18-1.08a3.45,3.45,0,0,0-1.49-.37,17.65,17.65,0,0,0-3.08-.09c-.5,0-1,.13-1.5.22l-1.19.21a5.26,5.26,0,0,0-2.94,1.2,2.76,2.76,0,0,0-.74,1.62,2,2,0,0,0,.82,1.56,4.78,4.78,0,0,0,1.13.68c.42.21.83.45,1.26.62S152.6,175,153.08,175.25Z"/><path class="cls-11" d="M146.85,172.84a2.54,2.54,0,0,0,.85,1.44,4.62,4.62,0,0,0,1.51.59,13.07,13.07,0,0,0,2.21.58,29.36,29.36,0,0,0,6,.24,26.86,26.86,0,0,0,4-.42c.94-.19,2.53-.38,3.08-1.25a3.55,3.55,0,0,0,.58-2.47c-.19-.85-1.32-1.3-2-1.7a13.83,13.83,0,0,0-7.84-1.87,16,16,0,0,0-4.7,1.25,17.46,17.46,0,0,0-2.51,1.09,2.41,2.41,0,0,0-.95.84A2.44,2.44,0,0,0,146.85,172.84Zm4.28-.22a2.24,2.24,0,0,1,.89-2.11c.19-.12.39-.22.57-.35.47-.35.61-.86,1.2-1a11.63,11.63,0,0,1,2.28-.18,4,4,0,0,1,1.15.12,5.14,5.14,0,0,1,.88.37,14.72,14.72,0,0,1,1.39.8c.79.55,2,1.55,1.75,2.65-.15.64-.72.93-1.25,1.23a8.46,8.46,0,0,1-7.22.34,2.86,2.86,0,0,1-1.43-1.22A2,2,0,0,1,151.13,172.62Z"/><path class="cls-12" d="M153.45,174.67a3.76,3.76,0,0,0,.72.54,4.28,4.28,0,0,0,5.3-.81,3.44,3.44,0,0,0,.14-4,4.21,4.21,0,0,0-4.22-1.66,4,4,0,0,0-2.95,2.3A3.67,3.67,0,0,0,153.45,174.67Z"/><path class="cls-10" d="M153.08,29.7a6.91,6.91,0,0,1,.79-.33c1-.28,2,.26,3,.27a5.35,5.35,0,0,1,1.06,0,8.4,8.4,0,0,1,1.14.53,7.42,7.42,0,0,0,1.15.28,5.36,5.36,0,0,1,1.1.4,1.57,1.57,0,0,1,.47.34,1.66,1.66,0,0,1,.24.48,2.23,2.23,0,0,1-.25,2.17,9.34,9.34,0,0,1-1.33.89c-.43.32-.72.8-1.18,1.08a3.45,3.45,0,0,1-1.49.37,17.65,17.65,0,0,1-3.08.09c-.5,0-1-.13-1.5-.22l-1.19-.21a5.26,5.26,0,0,1-2.94-1.2,2.76,2.76,0,0,1-.74-1.62,2,2,0,0,1,.82-1.56,4.78,4.78,0,0,1,1.13-.68c.42-.21.83-.45,1.26-.62S152.6,29.9,153.08,29.7Z"/><path class="cls-11" d="M147.05,33.79a2.41,2.41,0,0,0,.95.84,17.46,17.46,0,0,0,2.51,1.09,16,16,0,0,0,4.7,1.25,13.83,13.83,0,0,0,7.84-1.87c.71-.41,1.84-.85,2-1.7a3.55,3.55,0,0,0-.58-2.47c-.55-.87-2.14-1.06-3.08-1.25a26.86,26.86,0,0,0-4-.42,29.36,29.36,0,0,0-6,.24,12.19,12.19,0,0,0-2.21.58,4.84,4.84,0,0,0-1.51.58,2.6,2.6,0,0,0-.85,1.45A2.44,2.44,0,0,0,147.05,33.79Zm4.29-2.14a2.86,2.86,0,0,1,1.43-1.22,8.42,8.42,0,0,1,7.22.34c.53.29,1.1.59,1.25,1.23.25,1.1-1,2.1-1.75,2.65a14.72,14.72,0,0,1-1.39.8,5.14,5.14,0,0,1-.88.37,4,4,0,0,1-1.15.12,11.63,11.63,0,0,1-2.28-.18c-.59-.11-.73-.63-1.2-1-.18-.13-.38-.23-.57-.35a2.24,2.24,0,0,1-.89-2.11A2,2,0,0,1,151.34,31.65Z"/><path class="cls-12" d="M153.45,30.28a4.18,4.18,0,0,1,6,.27,3.44,3.44,0,0,1,.14,4,4.21,4.21,0,0,1-4.22,1.66,4,4,0,0,1-2.95-2.3A3.67,3.67,0,0,1,153.45,30.28Z"/><path class="cls-10" d="M124.3,149a5.94,5.94,0,0,0,.79.32c1,.28,2-.25,3-.27a4.77,4.77,0,0,0,1.07,0,8.8,8.8,0,0,0,1.13-.52,6.56,6.56,0,0,1,1.16-.29,4.19,4.19,0,0,0,1.09-.4,1.33,1.33,0,0,0,.47-.33,1.25,1.25,0,0,0,.24-.49,2.21,2.21,0,0,0-.25-2.16,7.71,7.71,0,0,0-1.33-.89,14.81,14.81,0,0,0-1.17-1.08,3.5,3.5,0,0,0-1.5-.37,17.6,17.6,0,0,0-3.08-.09c-.5,0-1,.13-1.5.22l-1.19.21a5.26,5.26,0,0,0-2.94,1.2,2.7,2.7,0,0,0-.74,1.62,2,2,0,0,0,.82,1.56,5,5,0,0,0,1.13.68c.42.21.84.45,1.27.62S123.82,148.82,124.3,149Z"/><path class="cls-11" d="M118.07,146.62a2.67,2.67,0,0,0,.85,1.44,4.66,4.66,0,0,0,1.52.58,11.14,11.14,0,0,0,2.2.58,29.39,29.39,0,0,0,6,.25,28.26,28.26,0,0,0,4-.42c.94-.19,2.54-.39,3.08-1.25a3.5,3.5,0,0,0,.59-2.47c-.2-.85-1.33-1.3-2-1.7a13.84,13.84,0,0,0-7.85-1.87,15.59,15.59,0,0,0-4.69,1.25,17.06,17.06,0,0,0-2.52,1.08,2.65,2.65,0,0,0-1,.84A2.53,2.53,0,0,0,118.07,146.62Zm4.28-.22a2.23,2.23,0,0,1,.89-2.11c.19-.13.39-.22.57-.36.47-.34.61-.85,1.21-1a13.2,13.2,0,0,1,2.27-.18,4.41,4.41,0,0,1,1.15.12,5.7,5.7,0,0,1,.88.38,13.56,13.56,0,0,1,1.39.8c.79.55,2,1.55,1.75,2.64-.15.64-.72.94-1.25,1.24a8.46,8.46,0,0,1-7.22.34,2.93,2.93,0,0,1-1.42-1.22A1.87,1.87,0,0,1,122.35,146.4Z"/><path class="cls-12" d="M124.75,148.64c1.61,1.56,4.58,1.75,6-.19,2.24-3-1.19-6.75-4.46-5.87a3.61,3.61,0,0,0-2.57,4.37A3.71,3.71,0,0,0,124.75,148.64Z"/><path class="cls-13" d="M113.23,120.25a7.75,7.75,0,0,0,.79.33c1,.28,2-.26,3-.28a4.78,4.78,0,0,0,1.07,0,8.88,8.88,0,0,0,1.13-.53,7.54,7.54,0,0,1,1.16-.28,5.36,5.36,0,0,0,1.1-.4,1.41,1.41,0,0,0,.46-.34,1.28,1.28,0,0,0,.24-.48,2.25,2.25,0,0,0-.24-2.17,8.91,8.91,0,0,0-1.34-.89c-.42-.32-.72-.8-1.17-1.08a3.46,3.46,0,0,0-1.5-.37,17.6,17.6,0,0,0-3.08-.09,14.86,14.86,0,0,0-1.49.22l-1.2.21a5.32,5.32,0,0,0-2.94,1.2,2.76,2.76,0,0,0-.74,1.62,2,2,0,0,0,.82,1.56,5.22,5.22,0,0,0,1.13.68c.42.21.84.45,1.27.62S112.75,120,113.23,120.25Z"/><path class="cls-14" d="M107,117.84a2.6,2.6,0,0,0,.85,1.44,4.67,4.67,0,0,0,1.52.59,12.83,12.83,0,0,0,2.21.58,29.26,29.26,0,0,0,6,.24,26.86,26.86,0,0,0,4-.42c.94-.19,2.54-.38,3.08-1.25a3.5,3.5,0,0,0,.59-2.47c-.2-.85-1.33-1.3-2-1.7a13.84,13.84,0,0,0-7.85-1.87,15.88,15.88,0,0,0-4.69,1.25,17.58,17.58,0,0,0-2.52,1.09,2.38,2.38,0,0,0-.94.84A2.44,2.44,0,0,0,107,117.84Zm4.28-.22a2.27,2.27,0,0,1,.89-2.11c.19-.12.39-.22.58-.35.46-.35.6-.86,1.2-1a11.57,11.57,0,0,1,2.28-.18,4,4,0,0,1,1.14.12,4.55,4.55,0,0,1,.88.37,13.71,13.71,0,0,1,1.4.8c.79.55,2,1.55,1.74,2.65-.15.64-.72.93-1.24,1.23a8.48,8.48,0,0,1-7.23.34,2.88,2.88,0,0,1-1.42-1.22A1.81,1.81,0,0,1,111.28,117.62Z"/><path class="cls-15" d="M113.69,119.86a4.25,4.25,0,0,0,5.36.48c3.33-2.57-.19-7.51-3.79-6.53A3.63,3.63,0,0,0,113.69,119.86Z"/><path class="cls-13" d="M148.72,120.25a7.59,7.59,0,0,0,.78.33c1,.28,2-.26,3.05-.28a4.78,4.78,0,0,0,1.07,0,7.76,7.76,0,0,0,1.13-.53,7.54,7.54,0,0,1,1.16-.28,5.36,5.36,0,0,0,1.1-.4,1.41,1.41,0,0,0,.46-.34,1.47,1.47,0,0,0,.25-.48,2.25,2.25,0,0,0-.25-2.17,8.91,8.91,0,0,0-1.34-.89c-.42-.32-.72-.8-1.17-1.08a3.46,3.46,0,0,0-1.5-.37,17.51,17.51,0,0,0-3.07-.09,15.05,15.05,0,0,0-1.5.22l-1.19.21a5.26,5.26,0,0,0-2.94,1.2,2.64,2.64,0,0,0-.74,1.62,2,2,0,0,0,.82,1.56,4.78,4.78,0,0,0,1.13.68c.42.21.83.45,1.26.62S148.23,120,148.72,120.25Z"/><path class="cls-14" d="M142.48,117.84a2.66,2.66,0,0,0,.85,1.44,4.67,4.67,0,0,0,1.52.59,13.07,13.07,0,0,0,2.21.58,29.36,29.36,0,0,0,6,.24,26.73,26.73,0,0,0,4-.42c.95-.19,2.54-.38,3.09-1.25a3.55,3.55,0,0,0,.58-2.47c-.2-.85-1.33-1.3-2-1.7a13.83,13.83,0,0,0-7.84-1.87,16,16,0,0,0-4.7,1.25,17.58,17.58,0,0,0-2.52,1.09,2.38,2.38,0,0,0-.94.84A2.5,2.5,0,0,0,142.48,117.84Zm4.28-.22a2.25,2.25,0,0,1,.9-2.11c.18-.12.39-.22.57-.35.47-.35.6-.86,1.2-1a11.63,11.63,0,0,1,2.28-.18,4,4,0,0,1,1.14.12,4.55,4.55,0,0,1,.88.37,13.71,13.71,0,0,1,1.4.8c.79.55,2,1.55,1.74,2.65-.14.64-.71.93-1.24,1.23a8.48,8.48,0,0,1-7.23.34A2.88,2.88,0,0,1,147,118.3,2,2,0,0,1,146.76,117.62Z"/><path class="cls-15" d="M149.17,119.86a4.27,4.27,0,0,0,5.37.48c3.32-2.57-.2-7.51-3.8-6.53A3.63,3.63,0,0,0,149.17,119.86Z"/><path class="cls-13" d="M184,120.25a7.59,7.59,0,0,0,.78.33c1,.28,2-.26,3-.28a4.78,4.78,0,0,0,1.07,0,7.76,7.76,0,0,0,1.13-.53,7.54,7.54,0,0,1,1.16-.28,5.36,5.36,0,0,0,1.1-.4,1.57,1.57,0,0,0,.47-.34,1.66,1.66,0,0,0,.24-.48,2.25,2.25,0,0,0-.25-2.17,8.91,8.91,0,0,0-1.34-.89,15,15,0,0,0-1.17-1.08,3.45,3.45,0,0,0-1.49-.37,17.65,17.65,0,0,0-3.08-.09,15.05,15.05,0,0,0-1.5.22l-1.19.21a5.26,5.26,0,0,0-2.94,1.2,2.7,2.7,0,0,0-.74,1.62,2,2,0,0,0,.82,1.56,4.78,4.78,0,0,0,1.13.68c.42.21.83.45,1.26.62S183.54,120,184,120.25Z"/><path class="cls-14" d="M177.79,117.84a2.54,2.54,0,0,0,.85,1.44,4.62,4.62,0,0,0,1.51.59,13.07,13.07,0,0,0,2.21.58,29.36,29.36,0,0,0,6,.24,26.86,26.86,0,0,0,4-.42c.94-.19,2.53-.38,3.08-1.25a3.55,3.55,0,0,0,.58-2.47c-.2-.85-1.32-1.3-2-1.7a13.83,13.83,0,0,0-7.84-1.87,16,16,0,0,0-4.7,1.25,18.08,18.08,0,0,0-2.52,1.09,2.09,2.09,0,0,0-1.14,2.52Zm4.27-.22a2.27,2.27,0,0,1,.9-2.11c.18-.12.39-.22.57-.35.47-.35.61-.86,1.2-1A11.63,11.63,0,0,1,187,114a4.09,4.09,0,0,1,1.15.12,4.74,4.74,0,0,1,.87.37,13.71,13.71,0,0,1,1.4.8c.79.55,2,1.55,1.75,2.65-.15.64-.72.93-1.25,1.23a8.46,8.46,0,0,1-7.22.34,2.86,2.86,0,0,1-1.43-1.22A2.26,2.26,0,0,1,182.06,117.62Z"/><path class="cls-15" d="M184.47,119.86a4.27,4.27,0,0,0,5.37.48c3.32-2.57-.19-7.51-3.79-6.53A3.63,3.63,0,0,0,184.47,119.86Z"/><path class="cls-13" d="M115.67,58.16a5.44,5.44,0,0,1,.79-.32c1-.29,2,.25,3.05.27a4.69,4.69,0,0,1,1.06,0,8.4,8.4,0,0,1,1.14.53,6.54,6.54,0,0,0,1.16.28,5.07,5.07,0,0,1,1.09.4,1.35,1.35,0,0,1,.47.34,1.25,1.25,0,0,1,.24.49,2.21,2.21,0,0,1-.25,2.16,8.81,8.81,0,0,1-1.33.89c-.42.32-.72.8-1.17,1.08a3.5,3.5,0,0,1-1.5.37,17.6,17.6,0,0,1-3.08.09c-.5,0-1-.13-1.5-.22l-1.19-.21a5.26,5.26,0,0,1-2.94-1.2,2.73,2.73,0,0,1-.74-1.62,2,2,0,0,1,.82-1.56,4.78,4.78,0,0,1,1.13-.68c.42-.21.84-.45,1.27-.62S115.19,58.37,115.67,58.16Z"/><path class="cls-14" d="M109.64,62.25a2.48,2.48,0,0,0,1,.84,16.42,16.42,0,0,0,2.51,1.09,15.73,15.73,0,0,0,4.7,1.25,13.84,13.84,0,0,0,7.85-1.87c.7-.4,1.83-.85,2-1.7a3.5,3.5,0,0,0-.59-2.47c-.54-.87-2.14-1.06-3.08-1.25a26.86,26.86,0,0,0-4-.42,28.67,28.67,0,0,0-6,.25,11.86,11.86,0,0,0-2.2.57,4.91,4.91,0,0,0-1.52.59,2.6,2.6,0,0,0-.85,1.44A2.49,2.49,0,0,0,109.64,62.25Zm4.3-2.14a2.88,2.88,0,0,1,1.42-1.22,8.46,8.46,0,0,1,7.22.34c.53.3,1.1.59,1.25,1.23.26,1.1-1,2.1-1.75,2.65a13.56,13.56,0,0,1-1.39.8,4.83,4.83,0,0,1-.88.37,3.69,3.69,0,0,1-1.15.12,12.27,12.27,0,0,1-2.27-.17c-.6-.12-.74-.63-1.21-1-.18-.14-.38-.23-.57-.36a2.24,2.24,0,0,1-.89-2.11A1.81,1.81,0,0,1,113.94,60.11Z"/><path class="cls-15" d="M116.12,58.55a4.26,4.26,0,0,1,5.37-.47c3.33,2.56-.19,7.5-3.79,6.53A3.64,3.64,0,0,1,116.12,58.55Z"/><path class="cls-13" d="M166.23,58.16a5.44,5.44,0,0,1,.79-.32c1-.29,2,.25,3,.27a4.69,4.69,0,0,1,1.06,0,8.4,8.4,0,0,1,1.14.53,6.65,6.65,0,0,0,1.15.28,5,5,0,0,1,1.1.4,1.35,1.35,0,0,1,.47.34,1.25,1.25,0,0,1,.24.49,2.21,2.21,0,0,1-.25,2.16,8.81,8.81,0,0,1-1.33.89c-.42.32-.72.8-1.17,1.08a3.5,3.5,0,0,1-1.5.37,17.6,17.6,0,0,1-3.08.09c-.5,0-1-.13-1.5-.22l-1.19-.21a5.26,5.26,0,0,1-2.94-1.2,2.73,2.73,0,0,1-.74-1.62,2,2,0,0,1,.82-1.56,4.78,4.78,0,0,1,1.13-.68c.42-.21.83-.45,1.27-.62S165.75,58.37,166.23,58.16Z"/><path class="cls-14" d="M160.2,62.25a2.41,2.41,0,0,0,1,.84,16.42,16.42,0,0,0,2.51,1.09,15.73,15.73,0,0,0,4.7,1.25,13.84,13.84,0,0,0,7.85-1.87c.7-.4,1.83-.85,2-1.7a3.5,3.5,0,0,0-.59-2.47c-.54-.87-2.14-1.06-3.08-1.25a26.86,26.86,0,0,0-4-.42,28.67,28.67,0,0,0-6,.25,11.86,11.86,0,0,0-2.2.57,4.91,4.91,0,0,0-1.52.59,2.6,2.6,0,0,0-.85,1.44A2.49,2.49,0,0,0,160.2,62.25Zm4.29-2.14a2.94,2.94,0,0,1,1.43-1.22,8.46,8.46,0,0,1,7.22.34c.53.3,1.1.59,1.25,1.23.26,1.1-1,2.1-1.75,2.65a13.56,13.56,0,0,1-1.39.8,4.83,4.83,0,0,1-.88.37,3.69,3.69,0,0,1-1.15.12,12.27,12.27,0,0,1-2.27-.17c-.6-.12-.74-.63-1.21-1-.18-.14-.38-.23-.57-.36a2.24,2.24,0,0,1-.89-2.11A2,2,0,0,1,164.49,60.11Z"/><path class="cls-15" d="M166.68,58.55a4.26,4.26,0,0,1,5.37-.47c3.33,2.56-.19,7.5-3.79,6.53A3.64,3.64,0,0,1,166.68,58.55Z"/><path class="cls-10" d="M122.09,83.63a6.86,6.86,0,0,1,.79-.32c1-.28,2,.26,3.05.27a4.7,4.7,0,0,1,1.06,0,7.34,7.34,0,0,1,1.14.53,7.15,7.15,0,0,0,1.15.28,4.83,4.83,0,0,1,1.1.4,1.57,1.57,0,0,1,.47.34,1.54,1.54,0,0,1,.24.48,2.21,2.21,0,0,1-.25,2.16,8.57,8.57,0,0,1-1.33.89,14.94,14.94,0,0,1-1.18,1.08,3.32,3.32,0,0,1-1.49.37,17.65,17.65,0,0,1-3.08.09c-.5,0-1-.13-1.5-.21l-1.19-.22a5.26,5.26,0,0,1-2.94-1.2,2.65,2.65,0,0,1-.74-1.62,2,2,0,0,1,.82-1.56,4.78,4.78,0,0,1,1.13-.68c.42-.2.83-.44,1.26-.61S121.61,83.84,122.09,83.63Z"/><path class="cls-11" d="M116.06,87.73a2.57,2.57,0,0,0,1,.84,17.46,17.46,0,0,0,2.51,1.09,16,16,0,0,0,4.7,1.24A13.67,13.67,0,0,0,132.06,89c.71-.4,1.83-.84,2-1.7a3.52,3.52,0,0,0-.58-2.46c-.55-.87-2.14-1.07-3.08-1.25a26.88,26.88,0,0,0-4-.43,29.36,29.36,0,0,0-6,.25,12.19,12.19,0,0,0-2.21.58,4.84,4.84,0,0,0-1.51.58,2.61,2.61,0,0,0-.85,1.44A2.47,2.47,0,0,0,116.06,87.73Zm4.29-2.15a2.91,2.91,0,0,1,1.43-1.22,8.46,8.46,0,0,1,7.22.34c.53.3,1.1.6,1.25,1.24.25,1.09-1,2.09-1.75,2.64a11.35,11.35,0,0,1-1.39.8,5.2,5.2,0,0,1-.88.38,4.41,4.41,0,0,1-1.15.12,12.45,12.45,0,0,1-2.28-.18c-.59-.11-.73-.63-1.2-1-.18-.13-.39-.23-.57-.36a2.23,2.23,0,0,1-.89-2.1A2.12,2.12,0,0,1,120.35,85.58Z"/><path class="cls-12" d="M122.54,84c1.61-1.56,4.57-1.74,6,.19,2.25,3-1.18,6.75-4.45,5.87A3.59,3.59,0,0,1,122.54,84Z"/><path class="cls-10" d="M157.34,83.63a7.52,7.52,0,0,1,.78-.32c1-.28,2,.26,3,.27a4.77,4.77,0,0,1,1.07,0,6.84,6.84,0,0,1,1.13.53,7.54,7.54,0,0,0,1.16.28,4.83,4.83,0,0,1,1.1.4,1.41,1.41,0,0,1,.46.34,1.38,1.38,0,0,1,.25.48,2.23,2.23,0,0,1-.25,2.16,8.21,8.21,0,0,1-1.34.89,14.81,14.81,0,0,1-1.17,1.08,3.33,3.33,0,0,1-1.5.37,17.51,17.51,0,0,1-3.07.09c-.51,0-1-.13-1.5-.21l-1.19-.22a5.26,5.26,0,0,1-2.94-1.2,2.59,2.59,0,0,1-.74-1.62,2,2,0,0,1,.82-1.56,4.78,4.78,0,0,1,1.13-.68c.42-.2.83-.44,1.26-.61S156.85,83.84,157.34,83.63Z"/><path class="cls-11" d="M151.31,87.73a2.54,2.54,0,0,0,.94.84,17.58,17.58,0,0,0,2.52,1.09,15.93,15.93,0,0,0,4.7,1.24A13.67,13.67,0,0,0,167.31,89c.7-.4,1.83-.84,2-1.7a3.52,3.52,0,0,0-.58-2.46c-.55-.87-2.14-1.07-3.09-1.25a26.75,26.75,0,0,0-4-.43,29.36,29.36,0,0,0-6,.25,12.19,12.19,0,0,0-2.21.58,4.89,4.89,0,0,0-1.52.58A2.73,2.73,0,0,0,151.1,86,2.53,2.53,0,0,0,151.31,87.73Zm4.29-2.15A2.93,2.93,0,0,1,157,84.36a8.48,8.48,0,0,1,7.23.34c.53.3,1.1.6,1.24,1.24.26,1.09-1,2.09-1.74,2.64a10.76,10.76,0,0,1-1.4.8,4.59,4.59,0,0,1-.88.38,4.38,4.38,0,0,1-1.14.12,12.45,12.45,0,0,1-2.28-.18c-.59-.11-.73-.63-1.2-1-.18-.13-.39-.23-.57-.36a2.23,2.23,0,0,1-.9-2.1A2.14,2.14,0,0,1,155.6,85.58Z"/><path class="cls-12" d="M157.79,84c1.61-1.56,4.57-1.74,6,.19,2.24,3-1.18,6.75-4.46,5.87A3.59,3.59,0,0,1,157.79,84Z"/><path class="cls-10" d="M192.58,83.63a7.68,7.68,0,0,1,.79-.32c1-.28,2,.26,3,.27a4.77,4.77,0,0,1,1.07,0,7.69,7.69,0,0,1,1.13.53,7.54,7.54,0,0,0,1.16.28,4.83,4.83,0,0,1,1.1.4,1.41,1.41,0,0,1,.46.34,1.21,1.21,0,0,1,.24.48,2.23,2.23,0,0,1-.24,2.16,8.21,8.21,0,0,1-1.34.89,14.81,14.81,0,0,1-1.17,1.08,3.33,3.33,0,0,1-1.5.37,17.6,17.6,0,0,1-3.08.09c-.5,0-1-.13-1.49-.21l-1.2-.22a5.32,5.32,0,0,1-2.94-1.2,2.7,2.7,0,0,1-.74-1.62,2,2,0,0,1,.82-1.56,5.22,5.22,0,0,1,1.13-.68c.42-.2.84-.44,1.27-.61S192.1,83.84,192.58,83.63Z"/><path class="cls-11" d="M186.56,87.73a2.54,2.54,0,0,0,.94.84A17.58,17.58,0,0,0,190,89.66a15.87,15.87,0,0,0,4.69,1.24A13.68,13.68,0,0,0,202.56,89c.7-.4,1.83-.84,2-1.7a3.48,3.48,0,0,0-.59-2.46c-.54-.87-2.14-1.07-3.08-1.25a26.74,26.74,0,0,0-4-.43,29.26,29.26,0,0,0-6,.25,12,12,0,0,0-2.21.58,4.89,4.89,0,0,0-1.52.58,2.67,2.67,0,0,0-.85,1.44A2.47,2.47,0,0,0,186.56,87.73Zm4.29-2.15a2.93,2.93,0,0,1,1.42-1.22,8.48,8.48,0,0,1,7.23.34c.52.3,1.09.6,1.24,1.24.26,1.09-1,2.09-1.74,2.64a10.76,10.76,0,0,1-1.4.8,4.59,4.59,0,0,1-.88.38,4.38,4.38,0,0,1-1.14.12,12.38,12.38,0,0,1-2.28-.18c-.6-.11-.74-.63-1.2-1-.19-.13-.39-.23-.58-.36a2.25,2.25,0,0,1-.89-2.1A1.92,1.92,0,0,1,190.85,85.58Z"/><path class="cls-12" d="M193,84c1.61-1.56,4.57-1.74,6,.19,2.24,3-1.19,6.75-4.46,5.87A3.59,3.59,0,0,1,193,84Z"/><path class="cls-10" d="M184.75,149a5.44,5.44,0,0,0,.79.32c1,.28,2-.25,3.05-.27a4.69,4.69,0,0,0,1.06,0,8.33,8.33,0,0,0,1.14-.52,6.68,6.68,0,0,1,1.15-.29,4.26,4.26,0,0,0,1.1-.4,1.43,1.43,0,0,0,.47-.33,1.4,1.4,0,0,0,.24-.49,2.21,2.21,0,0,0-.25-2.16,8.57,8.57,0,0,0-1.33-.89,14.81,14.81,0,0,0-1.17-1.08,3.5,3.5,0,0,0-1.5-.37,17.6,17.6,0,0,0-3.08-.09c-.5,0-1,.13-1.5.22l-1.19.21a5.26,5.26,0,0,0-2.94,1.2,2.7,2.7,0,0,0-.74,1.62,2,2,0,0,0,.82,1.56,4.78,4.78,0,0,0,1.13.68c.42.21.83.45,1.27.62S184.27,148.82,184.75,149Z"/><path class="cls-11" d="M178.52,146.62a2.67,2.67,0,0,0,.85,1.44,4.66,4.66,0,0,0,1.52.58,11.14,11.14,0,0,0,2.2.58,29.36,29.36,0,0,0,6,.25,28.26,28.26,0,0,0,4-.42c.94-.19,2.53-.39,3.08-1.25a3.5,3.5,0,0,0,.59-2.47c-.2-.85-1.33-1.3-2-1.7a13.86,13.86,0,0,0-7.85-1.87,15.73,15.73,0,0,0-4.7,1.25,17.42,17.42,0,0,0-2.51,1.08,2.57,2.57,0,0,0-.95.84A2.53,2.53,0,0,0,178.52,146.62Zm4.28-.22a2.23,2.23,0,0,1,.89-2.11c.19-.13.39-.22.57-.36.47-.34.61-.85,1.2-1a13.4,13.4,0,0,1,2.28-.18,4.41,4.41,0,0,1,1.15.12,5.7,5.7,0,0,1,.88.38,13.56,13.56,0,0,1,1.39.8c.79.55,2,1.55,1.75,2.64-.15.64-.72.94-1.25,1.24a8.46,8.46,0,0,1-7.22.34,3,3,0,0,1-1.43-1.22A2.07,2.07,0,0,1,182.8,146.4Z"/><path class="cls-12" d="M185.2,148.64c1.61,1.56,4.58,1.75,6-.19,2.24-3-1.19-6.75-4.46-5.87a3.6,3.6,0,0,0-2.57,4.37A3.71,3.71,0,0,0,185.2,148.64Z"/><path class="cls-16" d="M74.94,92.25a22.22,22.22,0,0,1,3.74-.46A5.06,5.06,0,0,0,83,88c.68-2.5-1.68-3.07-3.93-3.09a11.19,11.19,0,0,0-3.13.6,61.94,61.94,0,0,0-9.85,4.12c-3.15,1.55-6.42,2.6-9.59,4s-4.5,5.26-2.16,8.08a10.55,10.55,0,0,0,3.31,2.35,2.67,2.67,0,0,0,1.21.4,2.57,2.57,0,0,0,1.58-.87L69.87,95A10.79,10.79,0,0,1,74.94,92.25Z"/><path class="cls-17" d="M57.85,93.07l-1.37.58c-3.13,1.43-4.5,5.26-2.16,8.08a10.55,10.55,0,0,0,3.31,2.35,2.67,2.67,0,0,0,1.21.4,2.57,2.57,0,0,0,1.58-.87l4.92-4.48A33.54,33.54,0,0,1,57.85,93.07Z"/><path class="cls-17" d="M61.3,166.54c5.92-2.39,11.33-6,17.44-7.83,2-.61,4.21-1,6-2.26s3-3.52,2.22-5.5a4.34,4.34,0,0,0-5.11-2.22,7.43,7.43,0,0,0-4.4,4,6.6,6.6,0,0,1-1,1.62,5.09,5.09,0,0,1-2,1.16,41.74,41.74,0,0,1-22.2,1.67c-2.74-.55-5.83-1.32-8.15.24-3.48,2.33-3.59,11.86,1.11,12.87,1.93.42,5.46-.8,7.4-1.16A46.56,46.56,0,0,0,61.3,166.54Z"/><path class="cls-16" d="M77.41,152.69a6.6,6.6,0,0,1-1,1.62,5.09,5.09,0,0,1-2,1.16A41.53,41.53,0,0,1,60,157.91c-.63,3.4-1.62,7.33-3.62,10.29a44.93,44.93,0,0,0,4.95-1.66c5.92-2.39,11.33-6,17.44-7.83,2-.61,4.21-1,6-2.26s3-3.52,2.22-5.5a4.34,4.34,0,0,0-5.11-2.22A7.43,7.43,0,0,0,77.41,152.69Z"/><path class="cls-18" d="M24.06,109.81A32.15,32.15,0,0,0,15.89,122c-4.71,11.61-8.13,26.6-4,38.88,1.79,5.35,6.34,8.22,11.88,8.76A15.89,15.89,0,0,0,35.36,166a31.29,31.29,0,0,0,4.44-5c1.45-1.87,2.9-3.76,4.19-5.75a46.07,46.07,0,0,0,6-35.48c-1.34-5.56-8.83-9.26-13.67-11.37-3.5-1.52-8.13-2-11.31.52Q24.54,109.38,24.06,109.81Z"/><path class="cls-19" d="M38.25,100.86c-4.5,1.88-9.07,3.62-13.36,5.94C13.42,113,10.68,128.33,9.25,140.15c-.71,5.81-1.17,12.23-.28,18,1,6.19,4,11.49,9.87,14s13.08,2.06,19.34.69q6.82-1.5,13.53-3.49a3.32,3.32,0,0,0,1.61-.83A3.42,3.42,0,0,0,54,167c.32-1.61.66-3.21,1-4.82.16-.81.31-1.63.45-2.45a7.54,7.54,0,0,0,.19-2.32.54.54,0,0,0-.08-.21.46.46,0,0,0-.15-.09,7.19,7.19,0,0,0-2.22-.26c-.6,0-1.78,0-2-.74-.33-1.06.38-2.51.76-3.47s1-2.15,1.35-3.28a61.76,61.76,0,0,0,2.71-16.69,43.82,43.82,0,0,0-.72-8.16c-.6-3.44-2.11-5.65-.21-9a21.68,21.68,0,0,1,2.58-3.65c1-1.13,2.63-2,3.46-3.2,1.64-2.29-1-3.93-2.19-5.75-1.76-2.76-2.61-6-4.18-8.8-1-1.88-5.77,1.26-6.82,1.89A76.38,76.38,0,0,1,38.25,100.86Zm-3.94,9.41A13,13,0,0,1,45.11,118c.49,1.21.79,2.5,1.31,3.69,1.34,3.08,4.09,4.51,4,8a70.77,70.77,0,0,1-1.85,13.12,24.22,24.22,0,0,1-2.12,6.35,28,28,0,0,1-3.25,4.5,69.43,69.43,0,0,1-6.28,6.89c-4.09,3.78-11.28,9.38-17.17,6.56-3.43-1.65-4.4-5.25-5.41-8.61-4.06-13.52-1.14-30,7.16-41.33a16.78,16.78,0,0,1,8.71-6.53A11.54,11.54,0,0,1,34.31,110.27Z"/><path class="cls-17" d="M59.12,138.29a4.2,4.2,0,0,0-3.39-1.17,3.06,3.06,0,0,0-1.22.35,3.33,3.33,0,0,0-1.36,2.69C52.59,147.5,63.24,142.58,59.12,138.29Z"/><path class="cls-20" d="M44.16,162.2a6.92,6.92,0,0,1-3.25,1,7.15,7.15,0,0,1-3.62-.35,2.88,2.88,0,0,1-1.8-2.9,3.66,3.66,0,0,1,2.56-2.44,11,11,0,0,1,4.48-.72,3.81,3.81,0,0,1,2.07.56C46.17,158.43,45.57,161.24,44.16,162.2Z"/><path class="cls-20" d="M44.84,116.77a7,7,0,0,0-3.21-1.11,7.07,7.07,0,0,0-3.63.19,2.86,2.86,0,0,0-1.93,2.81,3.68,3.68,0,0,0,2.44,2.56,11.32,11.32,0,0,0,4.44.92,3.84,3.84,0,0,0,2.09-.47C46.66,120.63,46.2,117.79,44.84,116.77Z"/><path class="cls-21" d="M28.32,120a20.1,20.1,0,0,0-5.56,4c-6.31,6.41-9.77,16.66-6.52,25.35,3.52,9.4,12.58,15,22.67,12.74a23.93,23.93,0,0,0,3.88-1.22,17.83,17.83,0,0,0,3.38-2.41,15.46,15.46,0,0,0,3-2.69,15.38,15.38,0,0,0,1.39-2.31l1.86-3.56a69.31,69.31,0,0,0,3-6.42,27.73,27.73,0,0,0,1.15-3.28,6.66,6.66,0,0,1,.42-1.4,8.21,8.21,0,0,1,.75-1.1A15.89,15.89,0,0,0,59,135.18a11.57,11.57,0,0,0,1.33-5.82,19.41,19.41,0,0,0-.45-5.59,10.2,10.2,0,0,0-4.59-6,2,2,0,0,0-1.44-.37c-.5.11-.89.73-.59,1.14.18.26.57.37.66.67a.77.77,0,0,1-.33.76,3,3,0,0,1-3,.53c-1-.38-1.76-1.17-2.78-1.54-.79-.29-1.57-.62-2.4-.85a21.85,21.85,0,0,0-5.75-.67A26.89,26.89,0,0,0,28.32,120Z"/><path class="cls-22" d="M271.87,138.61a36.82,36.82,0,0,1-13.61-18.18,9.48,9.48,0,0,1-5.23-8.14,3.54,3.54,0,0,1,.42-2c1.06-1.69,3.87-1.08,5.07.52s1.42,3.7,2.06,5.6a16,16,0,0,0,6.61,8,36.71,36.71,0,0,0,9.69,4.16c3.12,1,6.34,1.79,9.07,3.57s4.93,4.75,4.83,8C290.39,151.75,275.83,141.39,271.87,138.61Z"/><path class="cls-23" d="M266.84,124.17a15.87,15.87,0,0,1-6.26-7.76c-.64-1.9-.85-4-2.06-5.6s-4-2.21-5.07-.52a3.54,3.54,0,0,0-.42,2,9.48,9.48,0,0,0,5.23,8.14A37,37,0,0,0,269,136.34,30.31,30.31,0,0,1,266.84,124.17Z"/><path class="cls-22" d="M254.89,45.59c-5.85,2.83-11.11,6.88-17.2,9.15-2,.77-4.21,1.35-5.92,2.71S229,61.24,229.9,63.2a4.41,4.41,0,0,0,5.35,1.91,7.59,7.59,0,0,0,4.2-4.33,6.72,6.72,0,0,1,.87-1.71,5.13,5.13,0,0,1,2-1.33,42.51,42.51,0,0,1,22.46-3.21c2.83.37,6,.94,8.28-.8,3.38-2.61,2.84-12.31-2-13-2-.29-5.5,1.19-7.44,1.69A46.7,46.7,0,0,0,254.89,45.59Z"/><path class="cls-2" d="M295.8,145a15.57,15.57,0,0,0,7.61-6.36c1.62-2.7,1.36-6.33,1.94-9.41a70.4,70.4,0,0,0,1.25-13.44c-.05-11.86-1.86-23.65-4.35-35.23a160.86,160.86,0,0,0-6.31-22.91c-2-5.32-4.67-14.43-10.27-16.78-4.35-1.83-10.37-2.93-14.95-1-4.78,2-6.29,9-8,13.49-5.62,15.07-7.22,31.88-3.34,47.57,2.3,9.33,6.77,18.06,11.79,26.2,2.83,4.6,5.22,9.51,8.77,13.63,1.53,1.78,3.5,3.94,5.8,4.71A14.7,14.7,0,0,0,295.8,145Z"/><path class="cls-7" d="M295.8,145a15.57,15.57,0,0,0,7.61-6.36c1.62-2.7,1.36-6.33,1.94-9.41a70.4,70.4,0,0,0,1.25-13.44c-.05-11.86-1.86-23.65-4.35-35.23a160.86,160.86,0,0,0-6.31-22.91c-2-5.32-4.67-14.43-10.27-16.78-4.35-1.83-10.37-2.93-14.95-1-4.78,2-6.29,9-8,13.49-5.62,15.07-7.22,31.88-3.34,47.57,2.3,9.33,6.77,18.06,11.79,26.2,2.83,4.6,5.22,9.51,8.77,13.63,1.53,1.78,3.5,3.94,5.8,4.71A14.7,14.7,0,0,0,295.8,145Zm-5.4-24.76A13.23,13.23,0,0,1,277.25,117c-.93-1-1.7-2.06-2.64-3-2.44-2.41-5.59-2.72-6.82-6.08a73,73,0,0,1-3.24-13.11,24.76,24.76,0,0,1-.4-6.81,29,29,0,0,1,1.35-5.49,73.23,73.23,0,0,1,3.32-8.91c2.43-5.14,7.1-13.17,13.75-12.74,3.87.25,6.16,3.29,8.39,6.09,9,11.24,12.49,27.93,9,41.81a17.08,17.08,0,0,1-5.76,9.49A11.75,11.75,0,0,1,290.4,120.21Z"/><path class="cls-24" d="M272,119.84c-3-9.38-6-18.8-8.26-28.39A199.58,199.58,0,0,1,259.12,66c-.3,1.42-.57,2.85-.79,4.28a200.63,200.63,0,0,0,3.93,21.5c2.37,9.63,5.33,19.08,8.62,28.41,1.68,4.66,3.49,9.27,5.57,13.77,1,2.14,2.1,4.26,3.24,6.34l.32.39c.25.3.53.61.81.92A154.21,154.21,0,0,1,272,119.84Z"/><path class="cls-25" d="M285.78,136.88c.74,3,1.47,6,2.21,9a14.52,14.52,0,0,0,3.09.14q-1.21-5-2.42-9.89-1.94-7.86-3.87-15.82a9.88,9.88,0,0,1-3.1-.19Q283.72,128.57,285.78,136.88Z"/><path class="cls-26" d="M281.69,120.16a9.88,9.88,0,0,0,3.1.19c-4.18-17.42-8.07-35.18-10.34-52.94-.09-.76-.19-1.53-.29-2.3a8.27,8.27,0,0,0-2.53,3.53C273.88,86,277.64,103.22,281.69,120.16Z"/><path class="cls-25" d="M271.51,67.79l.12.85a8.27,8.27,0,0,1,2.53-3.53c-1-8.2-2-17-1.82-25.81a11.07,11.07,0,0,0-1.6.52,6.57,6.57,0,0,0-1.39.79C269.25,50,270.42,59.25,271.51,67.79Z"/><path class="cls-27" d="M283.72,61.16c.66,4.09,1.3,8.17,2,12.26,1.36,8.33,3.35,16.71,5.26,24.82.48,2,1,4,1.43,6.05.95,4.09,1.95,8.26,3.05,12.62a2.17,2.17,0,0,0,1.4-.52c-1.08-4.29-2.07-8.4-3-12.44-.47-2-.94-4-1.42-6-1.91-8.08-3.89-16.44-5.24-24.72-.63-3.86-1.23-7.71-1.85-11.57A3.33,3.33,0,0,0,283.72,61.16Z"/><path class="cls-25" d="M280.5,41.05c1.06,6.7,2.15,13.4,3.22,20.11a3.33,3.33,0,0,1,1.58.45Q283.62,51.22,282,40.82l-.2-1.26c-.51-.13-1-.25-1.55-.35Z"/><path class="cls-25" d="M295.42,116.91c1.83,7.28,3.9,15.09,6.35,24a15.66,15.66,0,0,0,1.14-1.44c-2.34-8.49-4.33-16-6.09-23A2.17,2.17,0,0,1,295.42,116.91Z"/><path class="cls-28" d="M300.6,83.41,299.35,77c-.43-2.12-1-4.22-1.42-6.33-1-4.22-1.89-8.45-2.92-12.65-.62-2.64-1.26-5.28-1.9-7.92-.47-1.08-1-2.15-1.53-3.16q1.14,5.67,2.32,11.32c1.7,8.48,3.8,16.87,5.24,25.4l5,25.45a90.47,90.47,0,0,1,1.71,12.8c.08,1,.12,2,.18,3,.21-1.63.36-3.27.46-4.92a88.44,88.44,0,0,0-1.22-11.1C303.79,100.4,302.18,91.93,300.6,83.41Z"/><path class="cls-29" d="M257.15,99.45a4.26,4.26,0,0,0,3.61.53,2.82,2.82,0,0,0,1.16-.58,3.34,3.34,0,0,0,.85-3C261.94,89,252.23,95.94,257.15,99.45Z"/><path class="cls-23" d="M267.6,72.72a7,7,0,0,1,3.07-1.56,7.25,7.25,0,0,1,3.68-.34,2.93,2.93,0,0,1,2.35,2.56,3.73,3.73,0,0,1-2.1,2.93,11.44,11.44,0,0,1-4.34,1.56,3.9,3.9,0,0,1-2.17-.18C266.31,76.88,266.37,74,267.6,72.72Z"/><path class="cls-23" d="M275.34,117.49a9.46,9.46,0,0,0,7-.38,2.9,2.9,0,0,0,1.4-3.18,3.74,3.74,0,0,0-2.93-2.09,11.36,11.36,0,0,0-4.61-.08,3.88,3.88,0,0,0-2,.86C272.79,114,273.79,116.71,275.34,117.49Z"/><path class="cls-30" d="M291.41,112a20.42,20.42,0,0,0,4.81-5c5.09-7.59,6.62-18.49,1.73-26.57-5.29-8.73-15.41-12.61-25.07-8.46a25.4,25.4,0,0,0-3.64,2,17.73,17.73,0,0,0-2.93,3.06,15.43,15.43,0,0,0-2.45,3.24,15.91,15.91,0,0,0-1,2.57l-1.19,3.91a70.86,70.86,0,0,0-1.78,7,27.63,27.63,0,0,0-.53,3.5,6.56,6.56,0,0,1-.16,1.47,9.19,9.19,0,0,1-.53,1.25,14.46,14.46,0,0,0-.83,2.69,15.49,15.49,0,0,0-.52,2.94,15,15,0,0,0,.29,3.13,19.68,19.68,0,0,0,1.5,5.5,10.37,10.37,0,0,0,5.72,5.11,2.09,2.09,0,0,0,1.51.11c.47-.21.74-.9.37-1.26s-.64-.26-.79-.55a.78.78,0,0,1,.19-.81,3,3,0,0,1,2.89-1.1c1.07.19,2,.84,3.07,1,.85.14,1.69.32,2.56.39a21.92,21.92,0,0,0,5.88-.42A27.37,27.37,0,0,0,291.41,112Z"/><circle class="cls-31" cx="153.1" cy="130.09" r="4.21"/><circle class="cls-7" cx="146.18" cy="133.91" r="6.59"/></svg>